<svg width="384" height="352" viewBox="0 0 384 352" fill="none" xmlns="http://www.w3.org/2000/svg">
<g opacity="0.8">
<path d="M292.522 -1.56537H91.002V136.946H292.522V-1.56537Z" fill="#DDE6F2"/>
<path d="M280.256 83.6972H252.57V135.992H280.256V83.6972Z" fill="#719BD8"/>
<path d="M275.631 79.0876H257.176V89.8401H275.631V79.0876Z" fill="#719BD8"/>
<path d="M264.105 76.0209H261.024V89.8402H264.105V76.0209Z" fill="#719BD8"/>
<path d="M271.792 76.0209H268.711V89.8402H271.792V76.0209Z" fill="#719BD8"/>
<path d="M281.792 86.7734H251.025V88.3068H281.792V86.7734Z" fill="white"/>
<path d="M281.792 92.9163H251.025V94.4497H281.792V92.9163Z" fill="white"/>
<path d="M281.792 99.0593H251.025V100.593H281.792V99.0593Z" fill="white"/>
<path d="M281.792 105.202H251.025V106.736H281.792V105.202Z" fill="white"/>
<path d="M281.792 111.345H251.025V112.879H281.792V111.345Z" fill="white"/>
<path d="M281.792 117.759H251.025V119.293H281.792V117.759Z" fill="white"/>
<path d="M281.792 123.902H251.025V125.436H281.792V123.902Z" fill="white"/>
<path d="M281.792 130.045H251.025V131.579H281.792V130.045Z" fill="white"/>
<path d="M261.025 80.6304H259.489V83.7066H261.025V80.6304Z" fill="white"/>
<path d="M264.096 80.6304H262.561V83.7066H264.096V80.6304Z" fill="white"/>
<path d="M267.176 80.6304H265.641V83.7066H267.176V80.6304Z" fill="white"/>
<path d="M270.247 80.6304H268.712V83.7066H270.247V80.6304Z" fill="white"/>
<path d="M273.328 80.6304H271.792V83.7066H273.328V80.6304Z" fill="white"/>
<path d="M218.413 112.018H163.144V135.992H218.413V112.018Z" fill="#719BD8"/>
<path d="M202.3 109.559H176.963V116.936H202.3V109.559Z" fill="#719BD8"/>
<path d="M198.844 107.091H180.418V114.468H198.844V107.091Z" fill="#719BD8"/>
<path d="M170.821 116.114H164.679V117.75H170.821V116.114Z" fill="white"/>
<path d="M178.499 116.114H172.357V117.75H178.499V116.114Z" fill="white"/>
<path d="M186.176 116.114H180.034V117.75H186.176V116.114Z" fill="white"/>
<path d="M193.845 116.114H187.703V117.75H193.845V116.114Z" fill="white"/>
<path d="M201.523 116.114H195.38V117.75H201.523V116.114Z" fill="white"/>
<path d="M209.2 116.114H203.058V117.75H209.2V116.114Z" fill="white"/>
<path d="M216.878 116.114H210.736V117.75H216.878V116.114Z" fill="white"/>
<path d="M170.821 119.396H164.679V121.032H170.821V119.396Z" fill="white"/>
<path d="M178.499 119.396H172.357V121.032H178.499V119.396Z" fill="white"/>
<path d="M186.176 119.396H180.034V121.032H186.176V119.396Z" fill="white"/>
<path d="M193.845 119.396H187.703V121.032H193.845V119.396Z" fill="white"/>
<path d="M201.523 119.396H195.38V121.032H201.523V119.396Z" fill="white"/>
<path d="M209.2 119.396H203.058V121.032H209.2V119.396Z" fill="white"/>
<path d="M216.878 119.396H210.736V121.032H216.878V119.396Z" fill="white"/>
<path d="M170.821 122.677H164.679V124.314H170.821V122.677Z" fill="white"/>
<path d="M178.499 122.677H172.357V124.314H178.499V122.677Z" fill="white"/>
<path d="M186.176 122.677H180.034V124.314H186.176V122.677Z" fill="white"/>
<path d="M193.845 122.677H187.703V124.314H193.845V122.677Z" fill="white"/>
<path d="M201.523 122.677H195.38V124.314H201.523V122.677Z" fill="white"/>
<path d="M209.2 122.677H203.058V124.314H209.2V122.677Z" fill="white"/>
<path d="M216.878 122.677H210.736V124.314H216.878V122.677Z" fill="white"/>
<path d="M170.821 125.959H164.679V127.595H170.821V125.959Z" fill="white"/>
<path d="M178.499 125.959H172.357V127.595H178.499V125.959Z" fill="white"/>
<path d="M186.176 125.959H180.034V127.595H186.176V125.959Z" fill="white"/>
<path d="M193.845 125.959H187.703V127.595H193.845V125.959Z" fill="white"/>
<path d="M201.523 125.959H195.38V127.595H201.523V125.959Z" fill="white"/>
<path d="M209.2 125.959H203.058V127.595H209.2V125.959Z" fill="white"/>
<path d="M216.878 125.959H210.736V127.595H216.878V125.959Z" fill="white"/>
<path d="M170.821 129.241H164.679V130.877H170.821V129.241Z" fill="white"/>
<path d="M178.499 129.241H172.357V130.877H178.499V129.241Z" fill="white"/>
<path d="M186.176 129.241H180.034V130.877H186.176V129.241Z" fill="white"/>
<path d="M193.845 129.241H187.703V130.877H193.845V129.241Z" fill="white"/>
<path d="M201.523 129.241H195.38V130.877H201.523V129.241Z" fill="white"/>
<path d="M209.2 129.241H203.058V130.877H209.2V129.241Z" fill="white"/>
<path d="M216.878 129.241H210.736V130.877H216.878V129.241Z" fill="white"/>
<path d="M170.821 132.514H164.679V134.15H170.821V132.514Z" fill="white"/>
<path d="M178.499 132.514H172.357V134.15H178.499V132.514Z" fill="white"/>
<path d="M186.176 132.514H180.034V134.15H186.176V132.514Z" fill="white"/>
<path d="M193.845 132.514H187.703V134.15H193.845V132.514Z" fill="white"/>
<path d="M201.523 132.514H195.38V134.15H201.523V132.514Z" fill="white"/>
<path d="M209.2 132.514H203.058V134.15H209.2V132.514Z" fill="white"/>
<path d="M216.878 132.514H210.736V134.15H216.878V132.514Z" fill="white"/>
<path d="M170.821 135.795H164.679V135.982H170.821V135.795Z" fill="white"/>
<path d="M178.499 135.795H172.357V135.982H178.499V135.795Z" fill="white"/>
<path d="M186.176 135.795H180.034V135.982H186.176V135.795Z" fill="white"/>
<path d="M193.845 135.795H187.703V135.982H193.845V135.795Z" fill="white"/>
<path d="M201.523 135.795H195.38V135.982H201.523V135.795Z" fill="white"/>
<path d="M209.2 135.795H203.058V135.982H209.2V135.795Z" fill="white"/>
<path d="M216.878 135.795H210.736V135.982H216.878V135.795Z" fill="white"/>
<path d="M132.508 79.1064H108.174V135.992H132.508V79.1064Z" fill="#719BD8"/>
<path d="M126.432 76.0677H114.26V82.1452H126.432V76.0677Z" fill="#719BD8"/>
<path d="M123.389 74.553H117.303V77.5917H123.389V74.553Z" fill="#719BD8"/>
<path d="M125.664 82.1452H115.019V83.6599H125.664V82.1452Z" fill="white"/>
<path d="M125.664 85.184H115.019V86.6987H125.664V85.184Z" fill="white"/>
<path d="M113.501 82.1452H110.458V86.6986H113.501V82.1452Z" fill="white"/>
<path d="M130.233 82.1452H127.19V86.6986H130.233V82.1452Z" fill="white"/>
<path d="M125.664 89.7374H115.019V91.2521H125.664V89.7374Z" fill="white"/>
<path d="M125.664 92.7761H115.019V94.2908H125.664V92.7761Z" fill="white"/>
<path d="M113.501 89.7374H110.458V94.2908H113.501V89.7374Z" fill="white"/>
<path d="M130.233 89.7374H127.19V94.2908H130.233V89.7374Z" fill="white"/>
<path d="M125.664 97.3296H115.019V98.8443H125.664V97.3296Z" fill="white"/>
<path d="M125.664 100.368H115.019V101.883H125.664V100.368Z" fill="white"/>
<path d="M113.501 97.3296H110.458V101.883H113.501V97.3296Z" fill="white"/>
<path d="M130.233 97.3296H127.19V101.883H130.233V97.3296Z" fill="white"/>
<path d="M125.664 104.931H115.019V106.446H125.664V104.931Z" fill="white"/>
<path d="M125.664 107.97H115.019V109.485H125.664V107.97Z" fill="white"/>
<path d="M113.501 104.931H110.458V109.485H113.501V104.931Z" fill="white"/>
<path d="M130.233 104.931H127.19V109.485H130.233V104.931Z" fill="white"/>
<path d="M125.664 112.523H115.019V114.038H125.664V112.523Z" fill="white"/>
<path d="M125.664 115.562H115.019V117.077H125.664V115.562Z" fill="white"/>
<path d="M113.501 112.523H110.458V117.077H113.501V112.523Z" fill="white"/>
<path d="M130.233 112.523H127.19V117.077H130.233V112.523Z" fill="white"/>
<path d="M125.664 120.116H115.019V121.63H125.664V120.116Z" fill="white"/>
<path d="M125.664 123.154H115.019V124.669H125.664V123.154Z" fill="white"/>
<path d="M113.501 120.116H110.458V124.669H113.501V120.116Z" fill="white"/>
<path d="M130.233 120.116H127.19V124.669H130.233V120.116Z" fill="white"/>
<path d="M125.664 127.717H115.019V129.232H125.664V127.717Z" fill="white"/>
<path d="M125.664 130.756H115.019V132.271H125.664V130.756Z" fill="white"/>
<path d="M113.501 127.717H110.458V132.271H113.501V127.717Z" fill="white"/>
<path d="M130.233 127.717H127.19V132.271H130.233V127.717Z" fill="white"/>
<path d="M121.104 54.8058H119.587V79.1064H121.104V54.8058Z" fill="#719BD8"/>
<g opacity="0.4">
<path d="M137.77 -1.56542C137.592 -0.957668 137.452 -0.340568 137.321 0.295232C136.965 1.95018 136.703 3.66123 136.309 5.26008C134.54 12.4315 129.334 18.5184 122.808 21.0616C118.529 22.7352 113.707 23.0064 109.325 24.1938C108.735 24.3621 108.155 24.5398 107.584 24.7455C105.683 25.4093 103.885 26.3163 102.294 27.6814C98.3613 31.0754 96.6385 36.5171 94.7752 41.5381C93.7453 44.3244 92.5843 47.12 91.002 49.5604V32.1694C92.6967 28.6818 93.9232 24.8483 96.3576 21.9124C99.2508 18.4155 103.296 16.798 107.574 15.4983C108.146 15.3207 108.735 15.1524 109.316 14.9841C113.829 13.6844 118.473 12.5344 122.237 9.75743C125.495 7.36383 127.873 3.92303 129.943 0.285883C130.289 -0.331217 130.636 -0.948318 130.963 -1.57477H137.77V-1.56542Z" fill="white"/>
<path d="M209.276 0.295232C208.601 1.55748 208.189 2.96933 208.143 4.54013C208.049 7.59758 209.379 10.5615 209.229 13.6096C208.92 19.4721 203.358 23.4365 198.04 24.9886C193.508 26.3069 188.63 26.6622 184.342 28.607C183.752 28.8688 183.162 29.168 182.6 29.5046C182.46 29.5794 182.329 29.6636 182.188 29.7477C175.55 33.9272 172.638 42.4263 170.653 50.3738C168.668 58.3213 166.889 66.8672 161.356 72.5988C157.423 76.6754 152.236 78.6763 146.834 80.0881C146.263 80.2471 145.673 80.3873 145.092 80.5276C142.779 81.0886 140.448 81.5561 138.173 82.0703C133.697 83.0708 128.997 84.5387 125.055 86.9791C123.651 87.8393 122.34 88.8397 121.17 89.9804C120.795 90.3357 120.439 90.7191 120.093 91.1118C119.569 91.7102 119.091 92.3273 118.651 93.0005C118.333 93.4867 118.042 93.9822 117.771 94.5058C117.612 94.7957 117.471 95.0949 117.331 95.3847C117.013 96.086 116.75 96.7966 116.526 97.5259C116.357 98.0308 116.217 98.5263 116.086 99.0406C115.964 99.5455 115.852 100.041 115.739 100.546C115.636 101.051 115.533 101.546 115.43 102.051C115.243 103.052 115.065 104.071 114.859 105.071C114.803 105.352 114.756 105.623 114.691 105.894C114.634 106.128 114.597 106.352 114.531 106.586C114.419 107.091 114.297 107.586 114.166 108.091C114.035 108.606 113.895 109.101 113.735 109.606C113.614 110.046 113.483 110.466 113.333 110.896C113.146 111.476 112.949 112.056 112.743 112.626C112.724 112.673 112.706 112.72 112.687 112.757C112.518 113.225 112.34 113.673 112.153 114.131C111.957 114.646 111.732 115.141 111.516 115.646C111.292 116.16 111.058 116.656 110.814 117.152C110.346 118.133 109.84 119.115 109.297 120.059C109.279 120.097 109.251 120.134 109.232 120.172C109.063 120.471 108.904 120.751 108.726 121.032C108.352 121.668 107.959 122.294 107.547 122.911C107.481 123.033 107.397 123.154 107.312 123.276C106.994 123.762 106.666 124.229 106.329 124.697C105.112 126.399 103.773 128.026 102.35 129.55C100.477 131.569 98.4363 133.421 96.2548 135.066C95.3934 135.73 94.5132 136.338 93.605 136.927H90.9834V116.506C92.8466 115.104 94.841 113.86 96.8634 112.757C97.7248 112.29 98.5862 111.859 99.4663 111.448C99.8595 111.27 100.253 111.083 100.646 110.896C101.217 110.625 101.798 110.345 102.369 110.055C103.099 109.672 103.829 109.26 104.494 108.811C105.608 108.045 106.601 107.156 107.331 106.044C107.415 105.922 107.509 105.782 107.565 105.651C107.743 105.371 107.884 105.071 108.015 104.763C108.464 103.678 108.661 102.5 108.736 101.313C108.754 101.06 108.773 100.808 108.773 100.546C108.801 100.041 108.801 99.5455 108.811 99.0406C108.811 98.5357 108.811 98.0308 108.829 97.5259C108.829 97.1332 108.857 96.7498 108.885 96.3758C108.942 95.74 109.017 95.1229 109.129 94.5058C109.185 94.216 109.241 93.9261 109.316 93.6456C109.363 93.4306 109.41 93.2155 109.475 93.0005C109.616 92.4769 109.784 91.9813 109.962 91.4858C110.149 90.9715 110.346 90.476 110.58 89.9804C111.058 88.9332 111.638 87.9234 112.275 86.9604C112.631 86.4368 112.996 85.9412 113.398 85.4457C113.792 84.9221 114.222 84.4265 114.681 83.9403C115.149 83.4074 115.664 82.9025 116.189 82.4256C117.406 81.2849 118.717 80.2471 120.084 79.3588C120.57 79.0222 121.067 78.7137 121.563 78.4332C122.012 78.1714 122.462 77.9189 122.911 77.6758C123.613 77.3018 124.316 76.9465 125.027 76.6286C130.533 74.0667 136.469 72.5427 142.162 70.4015C143.126 70.0369 144.1 69.6442 145.064 69.2328C145.645 68.9803 146.234 68.7185 146.806 68.438C152.049 65.9509 156.89 62.5101 159.951 57.4237C164.221 50.3271 164.427 40.9771 169.23 34.2825C172.591 29.6075 177.638 26.9521 182.572 24.119C183.153 23.7824 183.743 23.4458 184.314 23.1092C185.4 22.4641 186.467 21.8096 187.507 21.099C193.19 17.2 197.918 11.777 201.139 5.46578C201.982 3.81083 202.731 2.05303 203.48 0.285883C203.733 -0.340567 203.995 -0.957668 204.257 -1.57477H210.483C210.015 -0.995068 209.594 -0.387317 209.247 0.285883L209.276 0.295232Z" fill="white"/>
<path d="M292.157 -1.56541C291.239 -0.957657 290.06 -0.340557 289.001 0.295243C287.728 1.06194 286.623 1.83799 286.296 2.67014C285.003 5.97069 287.035 9.87899 286.005 13.2637C284.329 18.7521 276.745 18.6212 272.916 22.6698C269.124 26.6622 269.873 33.6934 266.455 38.0505C264.648 40.3506 262.148 41.4165 259.377 42.0617C258.806 42.1926 258.225 42.3141 257.635 42.417C252.963 43.2491 247.851 43.3987 244.209 46.4468C237.636 51.9727 239.687 62.9963 236.934 71.4207C234.556 78.7043 228.657 83.6131 221.869 86.7921C221.298 87.0632 220.708 87.325 220.127 87.5681C217.581 88.634 214.95 89.4849 212.347 90.1207C208.395 91.0931 204.023 92.0281 201.542 95.4408C198.471 99.639 199.669 105.427 199.585 110.896C199.585 111.523 199.557 112.14 199.501 112.757C199.398 114.113 199.164 115.44 198.705 116.712C196.551 122.79 190.203 125.679 184.52 128.054C184.464 128.072 184.417 128.1 184.361 128.119C183.789 128.362 183.2 128.615 182.619 128.886C181.898 129.213 181.168 129.559 180.456 129.924C177.91 131.223 175.475 132.813 173.649 134.879C173.584 134.945 173.537 135.01 173.481 135.076C172.985 135.655 172.526 136.272 172.142 136.936H157.002C157.489 136.291 158.023 135.674 158.584 135.076C158.65 135.01 158.706 134.945 158.772 134.879C161.3 132.214 164.399 129.97 167.47 128.213C167.713 128.072 167.957 127.932 168.209 127.792C168.65 127.539 169.09 127.296 169.539 127.053C170.391 126.576 171.252 126.118 172.114 125.651C172.442 125.473 172.779 125.286 173.106 125.108C173.518 124.875 173.921 124.65 174.323 124.416C174.417 124.36 174.52 124.304 174.623 124.248C175.419 123.799 176.215 123.341 176.983 122.855C177.713 122.406 178.443 121.948 179.136 121.462C179.586 121.163 180.016 120.845 180.447 120.536C181.196 119.975 181.917 119.396 182.61 118.769C183.218 118.227 183.799 117.666 184.351 117.067C185.54 115.786 186.589 114.365 187.45 112.757C187.479 112.72 187.497 112.673 187.516 112.635C187.825 112.065 188.087 111.495 188.34 110.896C191.205 104.127 191.121 95.7681 195.877 90.3638C199.576 86.1656 205.231 84.8753 210.174 82.5752C213.817 80.8829 217.178 78.536 220.118 75.6843C220.717 75.0952 221.298 74.4968 221.859 73.8704C224.107 71.3926 226.045 68.5783 227.599 65.5582C232.056 56.8347 233.76 45.8297 241.306 40.014C245.454 36.8257 250.697 35.8159 255.332 33.5345C256.119 33.1511 256.886 32.7304 257.626 32.2722C258.216 31.9076 258.806 31.5242 259.368 31.1222C262.373 28.9904 265.004 26.2695 267.092 23.1279C271.099 17.0972 273.009 9.72939 276.848 3.57709C277.419 2.65144 278.318 1.47334 279.414 0.276543C279.976 -0.349907 280.594 -0.976356 281.249 -1.58411H292.166L292.157 -1.56541Z" fill="white"/>
<path d="M292.522 87.8954V103.781C291.969 104.875 291.417 105.969 290.78 106.997C290.031 108.232 289.188 109.4 288.159 110.42C287.981 110.597 287.812 110.765 287.625 110.924C287.363 111.168 287.091 111.392 286.81 111.607C286.763 111.635 286.735 111.672 286.689 111.691C286.164 112.093 285.621 112.448 285.059 112.748C285.041 112.766 285.013 112.776 284.994 112.785C283.318 113.72 281.483 114.347 279.591 114.833C278.711 115.057 277.822 115.253 276.923 115.44C276.605 115.506 276.268 115.562 275.949 115.627C275.294 115.749 274.638 115.871 273.983 116.001C273.496 116.095 273.009 116.188 272.513 116.282C271.165 116.553 269.816 116.862 268.524 117.245C266.624 117.825 264.807 118.591 263.197 119.741C262.71 120.087 262.242 120.471 261.792 120.892C261.755 120.92 261.727 120.948 261.699 120.976C260.865 121.761 260.098 122.593 259.367 123.463C259.246 123.612 259.124 123.762 259.002 123.912C258.553 124.454 258.131 125.006 257.71 125.576C257.682 125.623 257.654 125.66 257.626 125.697C257.064 126.483 256.521 127.278 255.987 128.091C255.641 128.643 255.285 129.194 254.939 129.755C254.349 130.728 253.759 131.719 253.178 132.71C252.944 133.121 252.71 133.514 252.476 133.925C252.289 134.253 252.102 134.58 251.914 134.898C251.868 134.963 251.83 135.029 251.802 135.094C251.437 135.721 251.072 136.338 250.707 136.955H233.413C234.284 136.263 235.211 135.665 236.166 135.094C238.188 133.907 240.36 132.916 242.476 131.934C243.815 131.307 245.145 130.662 246.446 129.924C246.868 129.681 247.28 129.428 247.692 129.166C248.244 128.82 248.778 128.456 249.283 128.082C250.295 127.334 251.231 126.511 252.055 125.576C252.467 125.127 252.841 124.669 253.178 124.173C253.328 123.958 253.478 123.734 253.618 123.51C254.04 122.827 254.405 122.107 254.742 121.368C254.985 120.826 255.22 120.284 255.454 119.732C255.809 118.891 256.175 118.04 256.587 117.226C256.877 116.647 257.186 116.095 257.542 115.562C257.57 115.515 257.598 115.478 257.616 115.44C257.785 115.197 257.953 114.954 258.15 114.721C258.525 114.262 258.927 113.851 259.367 113.477C259.536 113.318 259.704 113.178 259.882 113.047C259.985 112.953 260.098 112.869 260.219 112.785C260.219 112.785 260.219 112.776 260.238 112.776C260.725 112.42 261.249 112.112 261.792 111.841C262.111 111.672 262.429 111.523 262.747 111.383C263.141 111.214 263.543 111.055 263.955 110.915C265.294 110.457 266.68 110.148 268.056 109.924C268.215 109.896 268.375 109.868 268.524 109.849C269.854 109.634 271.183 109.475 272.513 109.279C274.713 108.961 276.885 108.54 278.927 107.652C279.02 107.605 279.114 107.568 279.217 107.521C279.882 107.212 280.518 106.867 281.118 106.483C281.623 106.156 282.101 105.81 282.569 105.445C282.981 105.118 283.383 104.772 283.767 104.417C284.46 103.762 285.106 103.07 285.705 102.322C286.052 101.902 286.389 101.472 286.698 101.013C287.222 100.284 287.709 99.5268 288.168 98.732C289.188 96.9929 290.05 95.1229 290.79 93.2062C291.239 92.0561 291.632 90.8874 291.997 89.728C292.166 89.1763 292.344 88.5592 292.54 87.886L292.522 87.8954Z" fill="white"/>
</g>
<path d="M91.7415 -1.56537H90V136.946H292.522V-1.56537H91.7415ZM290.771 135.085H91.7415V0.295281H290.771V135.085Z" fill="#6981B7"/>
<path d="M117.106 -0.639709H115.364V136.946H117.106V-0.639709Z" fill="#6981B7"/>
<path d="M154.614 -0.639709H152.872V136.946H154.614V-0.639709Z" fill="#6981B7"/>
<path d="M192.131 -0.639709H190.39V136.946H192.131V-0.639709Z" fill="#6981B7"/>
<path d="M229.64 -0.639709H227.898V136.946H229.64V-0.639709Z" fill="#6981B7"/>
<path d="M267.148 -0.639709H265.406V136.946H267.148V-0.639709Z" fill="#6981B7"/>
<path d="M291.642 114.814H91.002V116.675H291.642V114.814Z" fill="#6981B7"/>
<path d="M291.511 18.7054H90.8711V20.5661H291.511V18.7054Z" fill="#6981B7"/>
<path d="M287.129 -2.63129H95.3838V1.63231H287.129V-2.63129Z" fill="white"/>
<path d="M287.129 4.83002H95.3838V9.09362H287.129V4.83002Z" fill="white"/>
<path d="M287.129 12.3007H95.3838V16.5643H287.129V12.3007Z" fill="white"/>
<path d="M287.129 19.7713H95.3838V24.0349H287.129V19.7713Z" fill="white"/>
<path d="M287.129 27.2326H95.3838V31.4962H287.129V27.2326Z" fill="white"/>
<path d="M287.129 34.7032H95.3838V38.9668H287.129V34.7032Z" fill="white"/>
<path d="M287.129 42.1646H95.3838V46.4282H287.129V42.1646Z" fill="white"/>
<path d="M103.661 -0.499512H101.526V45.3716H103.661V-0.499512Z" fill="white"/>
<path d="M280.986 -0.499512H278.852V45.3716H280.986V-0.499512Z" fill="white"/>
<path d="M348.896 36.059H316.388V55.9371H348.896V36.059Z" fill="#6981B7"/>
<path d="M346.237 37.3867H319.038V55.2733H346.237V37.3867Z" fill="white"/>
<path d="M333.307 46.3253C333.307 46.6899 333.007 46.9891 332.642 46.9891C332.277 46.9891 331.977 46.6899 331.977 46.3253C331.977 45.9606 332.277 45.6614 332.642 45.6614C333.007 45.6614 333.307 45.9606 333.307 46.3253Z" fill="#A2CBFC"/>
<path d="M332.642 47.2603C332.361 47.2603 332.089 47.1388 331.902 46.905L328.251 42.2674C327.932 41.8654 327.998 41.2763 328.41 40.9584C328.812 40.6405 329.402 40.706 329.721 41.1174L332.895 45.1566L339.514 41.856C339.982 41.6223 340.544 41.8093 340.769 42.2768C341.003 42.7349 340.816 43.2959 340.348 43.5297L333.054 47.1762C332.923 47.2416 332.773 47.279 332.632 47.279L332.642 47.2603Z" fill="#6981B7"/>
<path d="M333.138 38.2095H332.146V40.2011H333.138V38.2095Z" fill="#A9CCFF"/>
<path d="M333.138 52.4589H332.146V54.4505H333.138V52.4589Z" fill="#A9CCFF"/>
<path d="M321.499 38.6982L320.921 39.5038L322.543 40.6637L323.121 39.8581L321.499 38.6982Z" fill="#A9CCFF"/>
<path d="M342.746 51.9977L342.168 52.8033L343.79 53.9632L344.368 53.1576L342.746 51.9977Z" fill="#A9CCFF"/>
<path d="M342.068 39.7416L342.657 40.5392L344.262 39.3571L343.673 38.5595L342.068 39.7416Z" fill="#A9CCFF"/>
<path d="M321.011 53.3074L321.6 54.105L323.205 52.9229L322.616 52.1253L321.011 53.3074Z" fill="#A9CCFF"/>
<path d="M345.245 46.9891V45.998H343.25V46.9891H345.245Z" fill="#A9CCFF"/>
<path d="M321.687 46.9891V45.998H319.693V46.9891H321.687Z" fill="#A9CCFF"/>
<path d="M314.246 172.485H281.606C281.172 172.485 280.82 172.836 280.82 173.27V193.635C280.82 194.068 281.172 194.42 281.606 194.42H314.246C314.68 194.42 315.032 194.068 315.032 193.635V173.27C315.032 172.836 314.68 172.485 314.246 172.485Z" fill="#272443"/>
<path d="M300.716 176.674C300.716 177.375 299.462 177.936 297.917 177.936C296.372 177.936 295.117 177.375 295.117 176.674C295.117 175.972 296.372 175.411 297.917 175.411C299.462 175.411 300.716 175.972 300.716 176.674Z" fill="#404082"/>
<path d="M351.707 217.954V256.27H250.399V217.954L253.461 199.647L253.592 198.843H348.514L348.645 199.647L351.707 217.954Z" fill="#F28C38"/>
<path d="M253.461 197.777H250.399V272.764H253.461V197.777Z" fill="#E04F5F"/>
<path d="M351.707 197.777H348.646V272.764H351.707V197.777Z" fill="#E04F5F"/>
<path d="M357.372 194.317H244.735V198.833H357.372V194.317Z" fill="#F28C38"/>
<path d="M351.716 198.843H250.399V201.077H351.716V198.843Z" fill="#E04F5F"/>
<path d="M46.5708 195.794H78.4331V193.186H46.5708V195.794Z" fill="#404082"/>
<path d="M64.1826 195.794H60.8213V204.368H64.1826V195.794Z" fill="#272443"/>
<path d="M59.5763 216.682H65.4282V199.404H59.5763V216.682Z" fill="#404082"/>
<path d="M68.602 227.023L70.2124 226.088L69.3791 224.658C68.7893 221.535 67.9185 219.515 66.5702 218.141C65.0066 216.551 62.8063 215.803 59.6416 215.803V217.664C64.6134 217.664 66.5328 219.478 67.5814 225.144L67.6095 225.303L68.6114 227.014L68.602 227.023Z" fill="#404082"/>
<path d="M80.8674 226.967L82.4778 226.032L81.5603 224.462C78.4237 219.085 72.6186 215.747 66.3922 215.747H62.75V217.608H66.3922C71.9538 217.608 77.1503 220.591 79.9498 225.387L80.8674 226.958V226.967Z" fill="#404082"/>
<path d="M77.9365 226.5C77.9365 228.015 79.1631 229.23 80.6705 229.23C82.178 229.23 83.4045 228.005 83.4045 226.5C83.4045 224.995 82.178 223.77 80.6705 223.77C79.1631 223.77 77.9365 224.995 77.9365 226.5Z" fill="#719BD8"/>
<path d="M78.8076 226.5C78.8076 228.015 80.0342 229.23 81.5416 229.23C83.0491 229.23 84.2756 228.005 84.2756 226.5C84.2756 224.995 83.0491 223.77 81.5416 223.77C80.0342 223.77 78.8076 224.995 78.8076 226.5Z" fill="#404082"/>
<path d="M44.1461 226.967L45.0637 225.397C47.8632 220.6 53.0597 217.617 58.6213 217.617H62.2635V215.757H58.6213C52.3949 215.757 46.5805 219.095 43.4532 224.471L42.5356 226.042L44.1461 226.977V226.967Z" fill="#404082"/>
<path d="M47.0676 226.5C47.0676 228.014 45.841 229.23 44.3336 229.23C42.8262 229.23 41.5996 228.005 41.5996 226.5C41.5996 224.994 42.8262 223.77 44.3336 223.77C45.841 223.77 47.0676 224.994 47.0676 226.5Z" fill="#719BD8"/>
<path d="M46.1965 226.5C46.1965 228.014 44.97 229.23 43.4625 229.23C41.9551 229.23 40.7285 228.005 40.7285 226.5C40.7285 224.994 41.9551 223.77 43.4625 223.77C44.97 223.77 46.1965 224.994 46.1965 226.5Z" fill="#404082"/>
<path d="M64.8101 226.5C64.8101 228.015 66.0366 229.23 67.5441 229.23C69.0515 229.23 70.278 228.005 70.278 226.5C70.278 224.995 69.0515 223.77 67.5441 223.77C66.0366 223.77 64.8101 224.995 64.8101 226.5Z" fill="#719BD8"/>
<path d="M65.6807 226.5C65.6807 228.015 66.9072 229.23 68.4147 229.23C69.9221 229.23 71.1487 228.005 71.1487 226.5C71.1487 224.995 69.9221 223.77 68.4147 223.77C66.9072 223.77 65.6807 224.995 65.6807 226.5Z" fill="#404082"/>
<path d="M62.9375 174.168C62.9375 174.85 63.4993 175.411 64.1828 175.411H70.1283C74.1263 175.411 77.3846 178.656 77.3846 182.648V194.177H79.8752V182.648C79.8752 177.291 75.5026 172.924 70.1376 172.924H64.1921C63.5086 172.924 62.9469 173.485 62.9469 174.168H62.9375Z" fill="#404082"/>
<path d="M36.2808 147.174C36.2902 147.343 36.3089 147.502 36.337 147.67C36.3745 147.96 36.4213 148.25 36.4868 148.54C36.5243 148.708 36.5617 148.867 36.5992 149.035C36.8801 150.204 37.2733 151.363 37.5916 152.513C37.6385 152.682 37.6759 152.841 37.7227 153.009C37.7227 153.009 37.7227 153.018 37.7227 153.028C37.7976 153.308 37.8632 153.598 37.9381 153.878C37.9755 154.047 38.0223 154.206 38.0598 154.374C38.35 155.533 38.6403 156.693 38.9306 157.852C38.968 158.02 39.0148 158.179 39.0523 158.348C39.1272 158.638 39.1927 158.927 39.2676 159.217C39.3051 159.386 39.3519 159.544 39.3893 159.713C39.6702 160.872 39.9418 162.032 40.2039 163.191C40.2414 163.359 40.2788 163.518 40.3163 163.687C40.3818 163.976 40.4474 164.266 40.5035 164.556C40.541 164.724 40.5784 164.883 40.6065 165.052C40.85 166.211 41.084 167.37 41.2994 168.53C41.3275 168.698 41.3556 168.857 41.393 169.025C41.4492 169.315 41.496 169.605 41.5428 169.895C41.5709 170.063 41.599 170.222 41.6271 170.39C41.8144 171.55 41.9923 172.709 42.1327 173.869C42.1514 174.037 42.1701 174.196 42.1889 174.364C42.2263 174.654 42.2544 174.944 42.2825 175.234C42.3012 175.402 42.32 175.561 42.3293 175.729C42.4417 176.889 42.5259 178.048 42.5728 179.208C42.5728 179.376 42.5821 179.535 42.5915 179.703C42.6008 179.993 42.6102 180.283 42.6102 180.573C42.6102 180.741 42.6102 180.9 42.6102 181.068C42.6102 182.228 42.5915 183.387 42.5166 184.546C42.5166 184.715 42.4979 184.874 42.4791 185.042C42.4604 185.332 42.4323 185.622 42.4042 185.911C42.4042 185.949 42.4042 185.996 42.3949 186.033C42.3855 186.155 42.3668 186.276 42.3574 186.407C42.3574 186.444 42.3574 186.491 42.3481 186.529C42.2638 187.351 42.1514 188.174 42.0203 188.997C48.3123 189.175 54.6136 189.109 60.9055 188.81C61.4579 188.782 62.0291 188.745 62.4972 188.445C63.1152 188.053 63.3773 187.305 63.5833 186.603C63.5833 186.575 63.6021 186.557 63.6021 186.529C63.6114 186.491 63.6301 186.444 63.6395 186.407C63.677 186.285 63.7144 186.164 63.7425 186.033C63.7519 185.996 63.7706 185.949 63.7799 185.911C63.8642 185.622 63.9391 185.332 64.014 185.042C64.0608 184.874 64.0983 184.715 64.1357 184.546C64.4166 183.396 64.6507 182.237 64.8473 181.068C64.8754 180.9 64.9035 180.741 64.9316 180.573C64.9784 180.283 65.0159 179.993 65.0627 179.703C65.0908 179.535 65.1095 179.376 65.1282 179.208C65.278 178.048 65.381 176.889 65.4559 175.729C65.4653 175.561 65.4747 175.402 65.484 175.234C65.5027 174.944 65.5121 174.654 65.5215 174.364C65.5215 174.196 65.5308 174.037 65.5402 173.869C65.5589 173.195 65.5683 172.522 65.5589 171.858C65.5589 171.372 65.5496 170.877 65.5308 170.39C65.5308 170.222 65.5215 170.063 65.5121 169.895C65.5027 169.605 65.484 169.315 65.4746 169.025C65.4746 168.857 65.4559 168.698 65.4466 168.53C65.381 167.37 65.278 166.211 65.1563 165.052C65.1376 164.883 65.1189 164.724 65.1001 164.556C65.0627 164.266 65.0346 163.976 64.9971 163.687C64.9784 163.518 64.9503 163.359 64.9316 163.191C64.7724 162.022 64.5852 160.863 64.3698 159.713C64.3417 159.544 64.3043 159.386 64.2762 159.217C64.22 158.927 64.1638 158.638 64.1077 158.348C64.0796 158.198 64.0421 158.048 64.014 157.899C64.014 157.88 64.014 157.871 64.0047 157.852C63.7612 156.683 63.4897 155.524 63.1994 154.374C63.1526 154.206 63.1152 154.047 63.0684 153.878C62.9935 153.589 62.9092 153.299 62.8343 153.009C62.7875 152.841 62.7407 152.682 62.6938 152.513C62.5721 152.055 62.4317 151.606 62.3006 151.148C62.0946 150.447 61.8793 149.736 61.6639 149.026C61.6171 148.857 61.5609 148.698 61.5047 148.53C61.4111 148.24 61.3175 147.95 61.2238 147.661C61.1677 147.492 61.1115 147.324 61.0553 147.165C61.0553 147.146 61.046 147.128 61.0366 147.1C60.6808 146.099 60.3812 145.174 59.6415 144.706C59.3044 144.491 58.8831 144.369 58.3307 144.369C57.2914 144.369 56.2521 144.369 55.2034 144.369H40.7376C39.7077 144.369 38.2845 144.07 37.3295 144.416C36.749 144.622 36.337 145.071 36.2715 145.95C36.2715 145.996 36.2715 146.043 36.2715 146.09C36.2527 146.454 36.2621 146.81 36.2902 147.174H36.2808Z" fill="#4A6D97"/>
<path d="M81.0453 186.472H43.9584C42.5467 186.472 41.4023 187.615 41.4023 189.025V191.624C41.4023 193.034 42.5467 194.177 43.9584 194.177H81.0453C82.457 194.177 83.6014 193.034 83.6014 191.624V189.025C83.6014 187.615 82.457 186.472 81.0453 186.472Z" fill="#E75860"/>
<path d="M61.4955 148.539H36.4775C36.515 148.708 36.5524 148.867 36.5899 149.035H61.6546C61.6078 148.867 61.5516 148.708 61.4955 148.539ZM63.0497 153.888H37.9288C37.9663 154.056 38.0131 154.215 38.0505 154.383H63.1808C63.134 154.215 63.0965 154.056 63.0497 153.888ZM64.2576 159.236H39.2584C39.2958 159.404 39.3426 159.563 39.3801 159.731H64.3605C64.3325 159.563 64.295 159.404 64.2669 159.236H64.2576ZM65.0815 164.584H40.4943C40.5317 164.752 40.5692 164.911 40.5973 165.08H65.1377C65.1189 164.911 65.1002 164.752 65.0815 164.584ZM65.5028 169.932H41.5336C41.5616 170.101 41.5897 170.26 41.6178 170.428H65.5216C65.5216 170.26 65.5122 170.101 65.5028 169.932ZM65.4747 175.28H42.2826C42.3013 175.449 42.32 175.608 42.3294 175.776H65.4467C65.456 175.608 65.4654 175.449 65.4747 175.28ZM42.4043 186.098C42.395 186.22 42.3762 186.342 42.3669 186.472H63.6396C63.677 186.351 63.7145 186.229 63.7426 186.098C63.752 186.061 63.7707 186.014 63.78 185.977H42.4137C42.4137 185.977 42.4137 186.061 42.4043 186.098ZM42.6103 181.124H64.8474C64.8755 180.956 64.9036 180.797 64.9317 180.629H42.6103C42.6103 180.797 42.6103 180.956 42.6103 181.124Z" fill="#294B74"/>
<path d="M39.792 174.168C39.792 174.85 40.3538 175.411 41.0373 175.411H46.9828C50.9808 175.411 54.2391 178.656 54.2391 182.648V194.177H56.7297V182.648C56.7297 177.291 52.3571 172.924 46.9921 172.924H41.0466C40.3631 172.924 39.8014 173.485 39.8014 174.168H39.792Z" fill="#404082"/>
<path d="M44.8385 155.131H51.3926V163.135C51.3926 164.65 50.1566 165.884 48.6398 165.884H47.5818C46.065 165.884 44.8291 164.65 44.8291 163.135V155.131H44.8385Z" fill="white"/>
<path d="M45.1191 164.014H44.0892C42.9562 164.014 42.0293 163.088 42.0293 161.957V159.058C42.0293 157.927 42.9562 157.001 44.0892 157.001H45.1191C46.252 157.001 47.1789 157.927 47.1789 159.058V161.957C47.1789 163.088 46.252 164.014 45.1191 164.014ZM44.0892 157.936C43.4712 157.936 42.9656 158.441 42.9656 159.058V161.957C42.9656 162.574 43.4712 163.079 44.0892 163.079H45.1191C45.737 163.079 46.2426 162.574 46.2426 161.957V159.058C46.2426 158.441 45.737 157.936 45.1191 157.936H44.0892Z" fill="white"/>
<path d="M103.788 165.65H76.7567C75.7361 165.65 75.0058 164.678 75.2867 163.696L80.015 147.38C80.2023 146.726 80.8015 146.277 81.485 146.277H108.516C109.537 146.277 110.267 147.249 109.986 148.231L105.258 164.547C105.07 165.201 104.471 165.65 103.788 165.65Z" fill="#272443"/>
<path d="M85.1366 163.78H59.7816C59.2011 163.78 58.7236 164.201 58.7236 164.715C58.7236 165.229 59.2011 165.65 59.7816 165.65H85.1366C85.7171 165.65 86.1947 165.229 86.1947 164.715C86.1947 164.201 85.7171 163.78 85.1366 163.78Z" fill="#272443"/>
<path d="M96.9715 149.979C96.9715 150.597 95.8667 151.092 94.4997 151.092C93.1327 151.092 92.0278 150.597 92.0278 149.979C92.0278 149.362 93.1327 148.867 94.4997 148.867C95.8667 148.867 96.9715 149.362 96.9715 149.979Z" fill="#404082"/>
<path d="M120.473 186.444V220.282H31V186.444L33.6965 170.269L33.8183 169.558H117.655L117.767 170.269L120.473 186.444Z" fill="#F28C38"/>
<path d="M33.7059 168.614H31V234.84H33.7059V168.614Z" fill="#E04F5F"/>
<path d="M120.473 168.614H117.767V234.84H120.473V168.614Z" fill="#E04F5F"/>
<path d="M125.472 165.566H26V169.558H125.472V165.566Z" fill="#F28C38"/>
<path d="M120.482 169.558H31V171.531H120.482V169.558Z" fill="#E04F5F"/>
<path d="M59.4417 320.224H72.035H78.4861L75.1903 353.463H72.035H59.4417H56.2958L53 320.224H59.4417Z" fill="#404082"/>
<path d="M136.49 261.385H192.003C192.324 261.385 192.583 261.125 192.583 260.805V229.473C192.583 229.153 192.324 228.893 192.003 228.893H136.49C136.169 228.893 135.909 229.153 135.909 229.473V260.805C135.909 261.125 136.169 261.385 136.49 261.385Z" fill="#A9CCFF"/>
<path d="M192.583 231.24V229.473C192.583 229.155 192.321 228.893 192.003 228.893H136.49C136.171 228.893 135.909 229.155 135.909 229.473V231.24H192.583Z" fill="#6981B7"/>
<path d="M135.909 259.047V260.796C135.909 261.114 136.171 261.375 136.49 261.375H192.003C192.321 261.375 192.583 261.114 192.583 260.796V259.047H135.909Z" fill="#6981B7"/>
<path d="M173.511 251.67H184.709C186.012 251.67 187.068 250.615 187.068 249.314V237.252C187.068 235.951 186.012 234.896 184.709 234.896H173.511C172.208 234.896 171.151 235.951 171.151 237.252V249.314C171.151 250.615 172.208 251.67 173.511 251.67Z" fill="#EEF5FF"/>
<path d="M151.04 254.475H162.238C163.541 254.475 164.598 253.42 164.598 252.119V240.057C164.598 238.756 163.541 237.701 162.238 237.701H151.04C149.737 237.701 148.681 238.756 148.681 240.057V252.119C148.681 253.42 149.737 254.475 151.04 254.475Z" fill="#EEF5FF"/>
<path d="M135.31 258.851V231.427C135.31 229.697 136.715 228.295 138.447 228.295H190.046C191.778 228.295 193.183 229.697 193.183 231.427V258.851C193.183 260.581 191.778 261.983 190.046 261.983H138.447C136.715 261.983 135.31 260.581 135.31 258.851ZM138.447 229.492C137.379 229.492 136.509 230.361 136.509 231.427V258.851C136.509 259.917 137.379 260.786 138.447 260.786H190.046C191.114 260.786 191.984 259.917 191.984 258.851V231.427C191.984 230.361 191.114 229.492 190.046 229.492H138.447Z" fill="#272443"/>
<path d="M158.773 265.573H169.719V261.385H158.773V265.573Z" fill="#272443"/>
<path d="M152.856 267.378H175.646L169.644 263.479H158.849L152.856 267.378Z" fill="#272443"/>
<path d="M232.77 267.378H178.343V353.473H232.77V267.378Z" fill="#F28C38"/>
<path d="M232.77 267.378H82.0815V272.016H232.77V267.378Z" fill="#F28C38"/>
<path d="M232.77 272.016H82.0815V274.11H232.77V272.016Z" fill="#E04F5F"/>
<path d="M232.77 351.369H178.343V353.463H232.77V351.369Z" fill="#E04F5F"/>
<path d="M232.77 272.016H230.672V353.463H232.77V272.016Z" fill="#E04F5F"/>
<path d="M180.44 272.016H178.343V353.463H180.44V272.016Z" fill="#E04F5F"/>
<path d="M84.1789 272.062H82.0815V353.463H84.1789V272.062Z" fill="#E04F5F"/>
<path d="M232.77 299.168H178.343V300.215H232.77V299.168Z" fill="#E04F5F"/>
<path d="M232.77 325.264H178.343V326.311H232.77V325.264Z" fill="#E04F5F"/>
<path d="M197.817 274.11L199.184 278.308H211.927L213.294 274.11H197.817Z" fill="#E04F5F"/>
<path d="M197.817 299.168L199.184 303.357H211.927L213.294 299.168H197.817Z" fill="#E04F5F"/>
<path d="M197.817 325.264L199.184 329.462H211.927L213.294 325.264H197.817Z" fill="#E04F5F"/>
<path d="M97.0717 310.556H137.96V307.209H97.0717V310.556Z" fill="#404082"/>
<path d="M119.674 310.556H115.358V321.561H119.674V310.556Z" fill="#272443"/>
<path d="M113.766 337.353H121.275V315.185H113.766V337.353Z" fill="#404082"/>
<path d="M125.348 350.64L127.417 349.434L126.34 347.592C125.582 343.581 124.468 341 122.736 339.233C120.732 337.185 117.904 336.231 113.841 336.231V338.625C120.217 338.625 122.689 340.963 124.028 348.227L124.065 348.433L125.348 350.63V350.64Z" fill="#404082"/>
<path d="M141.078 350.556L143.148 349.349L141.968 347.33C137.951 340.439 130.489 336.157 122.502 336.157H117.83V338.55H122.502C129.646 338.55 136.313 342.374 139.899 348.536L141.078 350.556Z" fill="#404082"/>
<path d="M137.324 349.957C137.324 351.893 138.897 353.463 140.835 353.463C142.773 353.463 144.346 351.893 144.346 349.957C144.346 348.022 142.773 346.451 140.835 346.451C138.897 346.451 137.324 348.022 137.324 349.957Z" fill="#719BD8"/>
<path d="M138.438 349.957C138.438 351.893 140.011 353.463 141.949 353.463C143.887 353.463 145.46 351.893 145.46 349.957C145.46 348.022 143.887 346.451 141.949 346.451C140.011 346.451 138.438 348.022 138.438 349.957Z" fill="#404082"/>
<path d="M93.954 350.556L95.1337 348.536C98.7291 342.374 105.396 338.55 112.53 338.55H117.202V336.157H112.53C104.544 336.157 97.0812 340.439 93.0645 347.33L91.8848 349.349L93.954 350.556Z" fill="#404082"/>
<path d="M97.7088 349.957C97.7088 351.893 96.1358 353.463 94.1976 353.463C92.2595 353.463 90.6865 351.893 90.6865 349.957C90.6865 348.022 92.2595 346.451 94.1976 346.451C96.1358 346.451 97.7088 348.022 97.7088 349.957Z" fill="#719BD8"/>
<path d="M96.5945 349.957C96.5945 351.893 95.0215 353.463 93.0834 353.463C91.1452 353.463 89.5723 351.893 89.5723 349.957C89.5723 348.022 91.1452 346.451 93.0834 346.451C95.0215 346.451 96.5945 348.022 96.5945 349.957Z" fill="#404082"/>
<path d="M120.47 349.957C120.47 351.893 122.043 353.463 123.981 353.463C125.919 353.463 127.492 351.893 127.492 349.957C127.492 348.022 125.919 346.451 123.981 346.451C122.043 346.451 120.47 348.022 120.47 349.957Z" fill="#719BD8"/>
<path d="M121.584 349.957C121.584 351.893 123.157 353.463 125.096 353.463C127.034 353.463 128.607 351.893 128.607 349.957C128.607 348.022 127.034 346.451 125.096 346.451C123.157 346.451 121.584 348.022 121.584 349.957Z" fill="#404082"/>
<path d="M118.073 282.806C118.073 283.684 118.785 284.404 119.674 284.404H127.296C132.427 284.404 136.603 288.575 136.603 293.698V308.49H139.795V293.698C139.795 286.817 134.187 281.216 127.296 281.216H119.674C118.794 281.216 118.073 281.927 118.073 282.815V282.806Z" fill="#404082"/>
<path d="M83.8607 248.164C83.8794 248.379 83.8982 248.584 83.9263 248.8C83.9731 249.174 84.0386 249.548 84.1135 249.922C84.1603 250.137 84.2072 250.342 84.254 250.557C84.6098 252.063 85.1154 253.549 85.5273 255.027C85.5835 255.242 85.6397 255.447 85.6959 255.662V255.681C85.7895 256.046 85.8738 256.41 85.9674 256.775C86.0236 256.99 86.0704 257.196 86.1266 257.411C86.5011 258.898 86.8756 260.384 87.2408 261.88C87.2969 262.095 87.3438 262.301 87.3999 262.516C87.4936 262.89 87.5872 263.264 87.6715 263.638C87.7276 263.853 87.7745 264.059 87.8306 264.274C88.1958 265.76 88.5422 267.247 88.8793 268.743C88.9261 268.958 88.9729 269.164 89.0197 269.379C89.104 269.753 89.1883 270.127 89.2632 270.501C89.31 270.716 89.3568 270.922 89.4036 271.137C89.722 272.623 90.0216 274.11 90.2931 275.606C90.3305 275.821 90.368 276.027 90.4055 276.242C90.471 276.616 90.5365 276.99 90.6021 277.364C90.6395 277.579 90.677 277.785 90.7051 278C90.9485 279.486 91.1639 280.973 91.3511 282.469C91.3792 282.684 91.3979 282.89 91.426 283.105C91.4728 283.479 91.5103 283.853 91.5477 284.227C91.5665 284.442 91.5946 284.647 91.6133 284.863C91.7537 286.349 91.8567 287.836 91.9223 289.332C91.9316 289.547 91.941 289.753 91.941 289.968C91.9503 290.342 91.9597 290.716 91.9691 291.09C91.9691 291.305 91.9691 291.51 91.9691 291.725C91.9784 293.221 91.941 294.708 91.8474 296.195C91.838 296.41 91.8193 296.615 91.8005 296.83C91.7725 297.204 91.7444 297.579 91.7069 297.953C91.7069 298.009 91.6975 298.055 91.6882 298.111C91.6695 298.27 91.6601 298.429 91.6414 298.588C91.6414 298.644 91.632 298.691 91.6226 298.747C91.5103 299.804 91.3698 300.86 91.2013 301.917C99.2816 302.151 107.362 302.067 115.433 301.674C116.135 301.636 116.884 301.59 117.474 301.216C118.26 300.711 118.607 299.748 118.869 298.859C118.878 298.831 118.888 298.794 118.897 298.766C118.916 298.71 118.925 298.663 118.944 298.607C118.991 298.448 119.037 298.289 119.084 298.13C119.103 298.074 119.112 298.027 119.131 297.971C119.234 297.597 119.337 297.223 119.431 296.849C119.487 296.634 119.543 296.428 119.59 296.213C119.955 294.736 120.255 293.249 120.498 291.744C120.536 291.529 120.573 291.323 120.601 291.108C120.657 290.734 120.713 290.36 120.76 289.986C120.788 289.771 120.816 289.566 120.845 289.35C121.032 287.864 121.172 286.377 121.257 284.881C121.275 284.666 121.285 284.46 121.294 284.245C121.313 283.871 121.331 283.497 121.341 283.123C121.341 282.908 121.36 282.703 121.36 282.488C121.388 281.627 121.388 280.767 121.388 279.907C121.388 279.281 121.369 278.654 121.35 278.018C121.35 277.803 121.331 277.598 121.331 277.383C121.313 277.009 121.303 276.634 121.285 276.26C121.275 276.045 121.266 275.84 121.247 275.625C121.163 274.138 121.032 272.642 120.873 271.155C120.845 270.94 120.826 270.735 120.798 270.52C120.751 270.146 120.704 269.772 120.657 269.398C120.629 269.183 120.601 268.977 120.573 268.762C120.367 267.266 120.133 265.779 119.852 264.293C119.815 264.077 119.768 263.872 119.73 263.657C119.655 263.283 119.581 262.909 119.506 262.535C119.468 262.338 119.431 262.151 119.384 261.955C119.384 261.936 119.384 261.918 119.375 261.899C119.066 260.403 118.719 258.907 118.335 257.43C118.279 257.215 118.223 257.009 118.167 256.794C118.064 256.42 117.97 256.046 117.867 255.672C117.811 255.457 117.755 255.251 117.689 255.036C117.53 254.456 117.362 253.867 117.184 253.288C116.921 252.39 116.65 251.483 116.369 250.567C116.304 250.352 116.238 250.146 116.172 249.931C116.051 249.557 115.929 249.183 115.807 248.809C115.732 248.594 115.667 248.379 115.592 248.173C115.592 248.145 115.573 248.117 115.564 248.089C115.114 246.808 114.721 245.621 113.775 245.013C113.345 244.742 112.811 244.583 112.1 244.573C110.761 244.573 109.431 244.573 108.092 244.573H89.5347C88.2145 244.573 86.3887 244.19 85.1528 244.629C84.4038 244.891 83.8701 245.462 83.8045 246.602C83.8045 246.658 83.8045 246.724 83.8045 246.78C83.7765 247.247 83.7952 247.706 83.8326 248.164H83.8607Z" fill="#4A6D97"/>
<path d="M93.7293 298.598H141.312C143.128 298.598 144.598 300.066 144.598 301.88V305.208C144.598 307.022 143.128 308.49 141.312 308.49H93.7293C91.9129 308.49 90.4429 307.022 90.4429 305.208V301.88C90.4429 300.066 91.9129 298.598 93.7293 298.598Z" fill="#4A6D97"/>
<path d="M116.229 249.922H84.123C84.1699 250.137 84.2167 250.342 84.2635 250.557H116.425C116.36 250.342 116.294 250.137 116.229 249.922ZM118.223 256.784H85.9863C86.0425 257 86.0893 257.205 86.1455 257.42H118.392C118.335 257.205 118.279 257 118.223 256.784ZM119.777 263.647H87.6903C87.7465 263.862 87.7933 264.068 87.8495 264.283H119.899C119.862 264.068 119.815 263.862 119.777 263.647ZM120.835 270.51H89.2821C89.3289 270.725 89.3757 270.931 89.4225 271.146H120.92C120.892 270.931 120.873 270.725 120.845 270.51H120.835ZM121.369 277.373H90.6116C90.6491 277.588 90.6865 277.794 90.7146 278.009H121.388C121.388 277.794 121.369 277.588 121.369 277.373ZM121.332 284.236H91.5666C91.5854 284.451 91.6134 284.657 91.6322 284.872H121.304C121.322 284.657 121.332 284.451 121.341 284.236H121.332ZM91.7258 298.111C91.7071 298.27 91.6977 298.429 91.679 298.588H118.981C119.028 298.429 119.075 298.27 119.122 298.111C119.141 298.055 119.15 298.009 119.169 297.953H91.7445C91.7445 298.009 91.7352 298.055 91.7258 298.111ZM91.9973 291.725H120.536C120.573 291.51 120.611 291.305 120.639 291.09H91.988C91.988 291.305 91.988 291.51 91.988 291.725H91.9973Z" fill="#294B74"/>
<path d="M88.3643 282.806C88.3643 283.684 89.0758 284.404 89.9653 284.404H97.5868C102.718 284.404 106.894 288.575 106.894 293.698V308.49H110.086V293.698C110.086 286.817 104.478 281.216 97.5868 281.216H89.9653C89.0852 281.216 88.3643 281.927 88.3643 282.815V282.806Z" fill="#404082"/>
</g>
</svg>
