<?xml version="1.0" encoding="utf-8"?>
<!-- Generator: Adobe Illustrator 24.3.0, SVG Export Plug-In . SVG Version: 6.00 Build 0)  -->
<svg version="1.1" id="Layer_1" xmlns:serif="http://www.serif.com/"
	 xmlns="http://www.w3.org/2000/svg" xmlns:xlink="http://www.w3.org/1999/xlink" x="0px" y="0px" viewBox="0 0 4000 4000"
	 style="enable-background:new 0 0 4000 4000;" xml:space="preserve">
<style type="text/css">
	.st0{fill-rule:evenodd;clip-rule:evenodd;fill:#2C63CC;}
	.st1{fill-rule:evenodd;clip-rule:evenodd;fill:#C2C2C2;}
</style>
<g id="Exp-1.-O" serif:id="Exp 1. O">
	<path class="st0" d="M3236.9,1726.1v-182.6c0-49.7-19.8-97.4-54.9-132.6c-35.2-35.1-82.9-54.9-132.6-54.9c-223.8,0-592.5,0-789.9,0
		c-80.4,0-151.9,51.3-177.6,127.5l-17.8,55.1H924.4c-49.8,0-97.4,19.8-132.6,54.9c-35.1,35.1-54.9,82.8-54.9,132.6H3236.9z"/>
	<path class="st1" d="M728.1,3113.6c0,0,48.7,311.5,82.9,530.9c21.4,136.9,139.3,237.8,277.9,237.8c429.6,0,1392.4,0,1822,0
		c138.6,0,256.5-100.9,277.9-237.8c56.2-360.1,170.8-1093.1,234.4-1500c12.6-81.2-10.8-163.9-64.2-226.3
		c-53.4-62.4-131.5-98.4-213.7-98.4c-551.3,0-1739.4,0-2290.8,0c-82.2,0-160.2,35.9-213.7,98.4c-53.4,62.4-76.9,145.1-64.2,226.3
		c51.2,327.6,127.7,817.1,127.7,817.1c2.7,17,18.7,28.7,35.7,26.1c17.1-2.7,28.8-18.7,26.1-35.8l-127.7-817.1
		c-9.8-63.1,8.4-127.4,49.9-176c41.6-48.6,102.3-76.5,166.2-76.5c551.3,0,1739.4,0,2290.8,0c63.9,0,124.7,27.9,166.2,76.5
		c41.5,48.6,59.8,112.9,49.9,176c-63.6,406.9-178.1,1139.9-234.4,1500c-16.7,106.5-108.4,185-216.2,185c-429.6,0-1392.4,0-1822,0
		c-107.8,0-199.5-78.5-216.2-185c-34.2-219.4-82.9-530.9-82.9-530.9c-2.6-17.1-18.6-28.8-35.7-26.1S725.5,3096.6,728.1,3113.6z"/>
	<path class="st1" d="M1075.9,3402.6v63.9c0,86.3,70,156.2,156.2,156.2h500c86.3,0,156.2-69.9,156.2-156.2v-125
		c0-86.2-69.9-156.2-156.2-156.2h-500c-43,0-82,17.4-110.3,45.6c-12.2,12.2-12.2,31.9-0.1,44.2c12.2,12.2,32,12.2,44.2,0.1
		c17-16.9,40.4-27.4,66.2-27.4c0.1,0,500,0,500,0c51.8,0,93.8,42,93.8,93.8v125c0,51.8-41.9,93.8-93.7,93.8c-0.1,0-500.1,0-500.1,0
		c-51.8,0-93.7-41.9-93.8-93.8v-63.9c0-17.2-14-31.2-31.2-31.2C1090,3371.3,1075.9,3385.4,1075.9,3402.6z"/>
	<path class="st1" d="M1473.7,1399.5c19.9-34.7,46.8-66.2,79.9-93.6c13.3-11,15.1-30.8,4.2-44c-11-13.3-30.7-15.2-44-4.2
		c-39.1,32.3-70.7,69.6-94.3,110.6c-8.6,14.9-3.4,34.1,11.5,42.7C1445.9,1419.6,1465.1,1414.4,1473.7,1399.5z"/>
	<path class="st1" d="M1673.9,1236c50.1-20,107.2-33.7,170.7-40.1c17.1-1.7,29.7-17,27.9-34.2c-1.7-17.1-17-29.7-34.2-28
		c-69.7,7-132.4,22.3-187.6,44.1c-16,6.4-23.9,24.6-17.5,40.6C1639.6,1234.5,1657.8,1242.4,1673.9,1236z"/>
	<path class="st1" d="M1997.6,1194.7c73.9,5.6,141.6,6.8,203.3,4.1c17.2-0.7,30.6-15.2,29.9-32.5c-0.8-17.3-15.3-30.6-32.6-29.9
		c-59.6,2.5-124.8,1.3-195.9-4.1c-17.2-1.2-32.2,11.6-33.6,28.8C1967.6,1178.4,1980.4,1193.4,1997.6,1194.7z"/>
	<path class="st1" d="M2369.6,1180.4c72.9-13.7,134.7-33.9,186.6-58.9c15.6-7.5,22.1-26.2,14.7-41.7c-7.5-15.6-26.2-22.1-41.7-14.7
		c-47.6,22.9-104.2,41.3-171.1,53.9c-17,3.2-28.1,19.5-24.9,36.4C2336.4,1172.4,2352.7,1183.6,2369.6,1180.4z"/>
	<path class="st1" d="M2683.6,1034.7c56-54.1,88.9-116.3,103.7-179.6c3.9-16.8-6.5-33.6-23.3-37.6c-16.8-3.9-33.6,6.5-37.5,23.3
		c-12.3,52.6-39.8,104.1-86.2,148.9c-12.4,12-12.8,31.8-0.8,44.2C2651.4,1046.3,2671.2,1046.7,2683.6,1034.7z"/>
	<path class="st1" d="M2772.4,639.9c-24.8-65.9-66.9-121.8-118.1-157.2c-14.2-9.8-33.7-6.2-43.5,8c-9.7,14.2-6.2,33.7,8,43.4
		c41.5,28.6,75,74.4,95.1,127.8c6.1,16.1,24.1,24.3,40.2,18.2S2778.5,656,2772.4,639.9z"/>
	<path class="st1" d="M1958.2,482.6c34.4-161,171.1-239.3,269.8-239.9c32.3-0.2,60.4,7.4,75,26.9c8.6,11.6,11.2,27.1,7.9,46.1
		c-2.9,17,8.4,33.2,25.4,36.1s33.2-8.5,36.1-25.5c6.8-39.1-1.8-70.4-19.4-94.1c-24.9-33.3-70.3-52.4-125.4-52.1
		c-120,0.7-288.7,93.4-330.5,289.4c-3.6,16.9,7.2,33.4,24.1,37.1C1938,510.2,1954.6,499.4,1958.2,482.6z"/>
	<path class="st1" d="M1897.4,482.7c42.2,195,210.4,287.2,330.1,288c59.3,0.3,107.4-21.8,130.9-59.9c14.1-23,20.3-52.3,13.8-88.1
		c-8.2-44.1-37.2-100.5-97.9-167.6c-11.6-12.8-31.3-13.8-44.1-2.2c-12.8,11.6-13.8,31.4-2.2,44.2c42.3,46.7,67.4,86.5,78.3,119.9
		c8.4,25.5,8.1,45.9-1.1,61c-8.3,13.5-23.4,21.8-41.4,26.2c-22.7,5.6-49.9,5.2-78.6-0.9c-91.8-19.4-196.9-96.1-226.8-233.9
		c-3.6-16.9-20.3-27.6-37.2-23.9C1904.4,449.2,1893.7,465.8,1897.4,482.7z"/>
	<path class="st0" d="M1919.4,538.6h418.4c34.5,0,62.5-28,62.5-62.5s-28-62.5-62.5-62.5h-418.4c-34.5,0-62.5,28-62.5,62.5
		S1884.9,538.6,1919.4,538.6z"/>
</g>
</svg>
