<svg width="116" height="116" viewBox="0 0 116 116" fill="none" xmlns="http://www.w3.org/2000/svg">
<path d="M11.6 98.5995C11.6 100.138 12.211 101.613 13.2988 102.701C14.3865 103.788 15.8617 104.4 17.4 104.4H25.1333V90.8662H15.4666C15.4666 90.8662 11.6 90.8662 11.6 98.5995Z" fill="#2C435D"/>
<path d="M104.4 23.1998V106.333C104.4 108.384 103.585 110.351 102.135 111.801C100.685 113.252 98.7176 114.066 96.6666 114.066H30.9333C28.8823 114.066 26.9153 113.252 25.465 111.801C24.0147 110.351 23.2 108.384 23.2 106.333V9.66644C23.2 7.61543 24.0147 5.64843 25.465 4.19815C26.9153 2.74787 28.8823 1.93311 30.9333 1.93311H83.1333L104.4 23.1998Z" fill="#DDE3EB"/>
<path d="M104.4 23.1998H85.0666C84.0033 23.1998 83.1333 22.3298 83.1333 21.2664V1.93311L104.4 23.1998Z" fill="#93A7C1"/>
<path d="M17.4 92.8H57.642C59.1802 92.8 60.6555 92.1889 61.7432 91.1012C62.8309 90.0135 63.442 88.5382 63.442 87V59.9333C63.442 58.395 62.8309 56.9198 61.7432 55.8321C60.6555 54.7444 59.1802 54.1333 57.642 54.1333H17.4C15.8617 54.1333 14.3865 54.7444 13.2988 55.8321C12.211 56.9198 11.6 58.395 11.6 59.9333V98.6C11.6 97.0617 12.211 95.5865 13.2988 94.4988C14.3865 93.411 15.8617 92.8 17.4 92.8Z" fill="#4A6D97"/>
<g clip-path="url(#clip0_180_6238)">
<path fill-rule="evenodd" clip-rule="evenodd" d="M37.1612 65.3013C35.1362 65.3013 33.4945 66.9429 33.4945 68.9679C33.4945 70.993 35.1362 72.6346 37.1612 72.6346C39.1863 72.6346 40.8279 70.993 40.8279 68.9679C40.8279 66.9429 39.1863 65.3013 37.1612 65.3013ZM35.4945 68.9679C35.4945 68.0475 36.2407 67.3013 37.1612 67.3013C38.0817 67.3013 38.8279 68.0475 38.8279 68.9679C38.8279 69.8884 38.0817 70.6346 37.1612 70.6346C36.2407 70.6346 35.4945 69.8884 35.4945 68.9679Z" fill="#E0EBFF"/>
<path fill-rule="evenodd" clip-rule="evenodd" d="M37.1612 73.3013C35.5669 73.3013 34.074 73.6223 32.9428 74.1879C31.8713 74.7236 30.8279 75.6487 30.8279 76.9679L30.8277 77.0512C30.8257 77.7317 30.8222 78.8775 31.9082 79.6636C32.4121 80.0284 33.0771 80.261 33.9008 80.4092C34.7322 80.5588 35.7975 80.6346 37.1612 80.6346C38.5249 80.6346 39.5903 80.5588 40.4216 80.4092C41.2454 80.261 41.9103 80.0284 42.4142 79.6636C43.5002 78.8775 43.4968 77.7317 43.4947 77.0512L43.4945 76.9679C43.4945 75.6487 42.4511 74.7236 41.3797 74.1879C40.2484 73.6223 38.7556 73.3013 37.1612 73.3013ZM32.8279 76.9679C32.8279 76.8144 32.9784 76.4062 33.8372 75.9767C34.6362 75.5772 35.81 75.3013 37.1612 75.3013C38.5124 75.3013 39.6862 75.5772 40.4852 75.9767C41.3441 76.4062 41.4945 76.8144 41.4945 76.9679C41.4945 77.7739 41.4432 77.8975 41.2415 78.0435C41.0788 78.1613 40.7437 78.3192 40.0675 78.4408C39.3988 78.5612 38.4642 78.6346 37.1612 78.6346C35.8583 78.6346 34.9236 78.5612 34.255 78.4408C33.5787 78.3192 33.2436 78.1613 33.0809 78.0435C32.8792 77.8975 32.8279 77.7739 32.8279 76.9679Z" fill="#E0EBFF"/>
<path d="M50.4945 73.9679C51.0468 73.9679 51.4945 73.5202 51.4945 72.9679C51.4945 72.4157 51.0468 71.9679 50.4945 71.9679H45.1612C44.6089 71.9679 44.1612 72.4157 44.1612 72.9679C44.1612 73.5202 44.6089 73.9679 45.1612 73.9679H50.4945Z" fill="#E0EBFF"/>
<path d="M51.4945 68.9679C51.4945 69.5202 51.0468 69.9679 50.4945 69.9679H43.8279C43.2756 69.9679 42.8279 69.5202 42.8279 68.9679C42.8279 68.4157 43.2756 67.9679 43.8279 67.9679H50.4945C51.0468 67.9679 51.4945 68.4157 51.4945 68.9679Z" fill="#E0EBFF"/>
<path d="M50.4945 77.9679C51.0468 77.9679 51.4945 77.5202 51.4945 76.9679C51.4945 76.4157 51.0468 75.9679 50.4945 75.9679H46.4945C45.9423 75.9679 45.4945 76.4157 45.4945 76.9679C45.4945 77.5202 45.9423 77.9679 46.4945 77.9679H50.4945Z" fill="#E0EBFF"/>
<path fill-rule="evenodd" clip-rule="evenodd" d="M38.4193 61.3013H43.9031C46.3534 61.3012 48.2943 61.3012 49.8132 61.5055C51.3765 61.7156 52.6417 62.1584 53.6396 63.1563C54.6374 64.1541 55.0802 65.4193 55.2904 66.9826C55.4946 68.5015 55.4946 70.4423 55.4945 72.8927V73.0432C55.4946 75.4935 55.4946 77.4344 55.2904 78.9533C55.0802 80.5165 54.6374 81.7818 53.6396 82.7796C52.6417 83.7774 51.3765 84.2203 49.8132 84.4304C48.2943 84.6346 46.3535 84.6346 43.9032 84.6346H38.4193C35.969 84.6346 34.0281 84.6346 32.5092 84.4304C30.946 84.2203 29.6807 83.7774 28.6829 82.7796C27.6851 81.7818 27.2422 80.5165 27.0321 78.9533C26.8278 77.4344 26.8279 75.4935 26.8279 73.0432V72.8927C26.8279 70.4424 26.8278 68.5015 27.0321 66.9826C27.2422 65.4193 27.6851 64.1541 28.6829 63.1563C29.6807 62.1584 30.946 61.7156 32.5092 61.5055C34.0281 61.3012 35.969 61.3012 38.4193 61.3013ZM32.7757 63.4876C31.4342 63.668 30.6614 64.0062 30.0971 64.5705C29.5328 65.1348 29.1946 65.9076 29.0142 67.2491C28.83 68.6193 28.8279 70.4255 28.8279 72.9679C28.8279 75.5104 28.83 77.3166 29.0142 78.6868C29.1946 80.0283 29.5328 80.8011 30.0971 81.3654C30.6614 81.9297 31.4342 82.2679 32.7757 82.4483C34.1459 82.6325 35.9521 82.6346 38.4945 82.6346H43.8279C46.3703 82.6346 48.1765 82.6325 49.5468 82.4483C50.8882 82.2679 51.6611 81.9297 52.2253 81.3654C52.7896 80.8011 53.1278 80.0283 53.3082 78.6868C53.4924 77.3166 53.4945 75.5104 53.4945 72.9679C53.4945 70.4255 53.4924 68.6193 53.3082 67.2491C53.1278 65.9076 52.7896 65.1348 52.2253 64.5705C51.6611 64.0062 50.8882 63.668 49.5467 63.4876C48.1765 63.3034 46.3703 63.3013 43.8279 63.3013H38.4945C35.9521 63.3013 34.1459 63.3034 32.7757 63.4876Z" fill="#E0EBFF"/>
</g>
<defs>
<clipPath id="clip0_180_6238">
<rect width="32" height="32" fill="white" transform="translate(25.1613 56.9678)"/>
</clipPath>
</defs>
</svg>
