<svg width="116" height="106" viewBox="0 0 116 106" fill="none" xmlns="http://www.w3.org/2000/svg">
<path d="M41.0946 0.251465C42.9525 0.251465 44.7339 0.989273 46.0479 2.30332L58 14.2554H108.998C112.865 14.2554 116 17.3904 116 21.2578V35.2618H101.996V30.5926L87.9921 49.2657H0V7.25389C0 3.38645 3.13498 0.251465 7.00243 0.251465H41.0946Z" fill="red"/>
<path d="M108.998 28.2593C112.865 28.2593 116 31.3943 116 35.2617V98.7467C116 102.614 112.865 105.748 108.998 105.748H7.00243C3.1351 105.748 0.000186812 102.614 0 98.7467V49.2656C0 45.3982 3.13498 42.2632 7.00243 42.2632H58L69.9521 30.3111C70.6024 29.6606 71.3752 29.1448 72.225 28.7928C73.0748 28.4408 73.9856 28.2592 74.9054 28.2593H108.998Z" fill="#DDE3EB"/>
</svg>
