<?xml version="1.0" encoding="utf-8"?>
<!-- Generator: Adobe Illustrator 24.3.0, SVG Export Plug-In . SVG Version: 6.00 Build 0)  -->
<svg version="1.1" id="Layer_1" xmlns="http://www.w3.org/2000/svg" xmlns:xlink="http://www.w3.org/1999/xlink" x="0px" y="0px"
	 viewBox="0 0 116 116" style="enable-background:new 0 0 116 116;" xml:space="preserve">
<style type="text/css">
	.st0{fill:#2C435D;}
	.st1{fill:#DDE3EB;}
	.st2{fill:#93A7C1;}
	.st3{fill:#4A6D97;}
</style>
<path class="st0" d="M11.6,98.6c0,1.5,0.6,3,1.7,4.1c1.1,1.1,2.6,1.7,4.1,1.7h7.7V90.9h-9.7C15.5,90.9,11.6,90.9,11.6,98.6z"/>
<path class="st1" d="M104.4,23.2v83.1c0,2.1-0.8,4-2.3,5.5c-1.5,1.5-3.4,2.3-5.5,2.3H30.9c-2.1,0-4-0.8-5.5-2.3
	c-1.5-1.5-2.3-3.4-2.3-5.5V9.7c0-2.1,0.8-4,2.3-5.5c1.5-1.5,3.4-2.3,5.5-2.3h52.2L104.4,23.2z"/>
<path class="st2" d="M104.4,23.2H85.1c-1.1,0-1.9-0.9-1.9-1.9V1.9L104.4,23.2z"/>
<path class="st3" d="M17.4,92.8H87c1.5,0,3-0.6,4.1-1.7c1.1-1.1,1.7-2.6,1.7-4.1V59.9c0-1.5-0.6-3-1.7-4.1s-2.6-1.7-4.1-1.7H17.4
	c-1.5,0-3,0.6-4.1,1.7s-1.7,2.6-1.7,4.1v38.7c0-1.5,0.6-3,1.7-4.1C14.4,93.4,15.9,92.8,17.4,92.8z"/>
</svg>
