<svg width="269" height="343" viewBox="0 0 269 343" fill="none" xmlns="http://www.w3.org/2000/svg">
<g clip-path="url(#clip0_2009_3178)">
<g style="mix-blend-mode:multiply" opacity="0.25">
<path d="M258.063 11.1915H0V343H258.063V11.1915Z" fill="#377AFD"/>
</g>
<path d="M269 0H10.937V331.809H269V0Z" fill="white"/>
<path d="M269 0H10.937V331.809H269V0Z" fill="#4A6D97" fill-opacity="0.05"/>
<g opacity="0.5">
<path d="M251.898 19.4808H168.776V28.6407H251.898V19.4808Z" fill="#4A6D97"/>
<path d="M251.898 38.4719H168.776V47.6318H251.898V38.4719Z" fill="#4A6D97"/>
<path d="M251.898 57.4629H168.776V66.6229H251.898V57.4629Z" fill="#4A6D97"/>
<path d="M251.898 76.4721H168.776V85.6321H251.898V76.4721Z" fill="#4A6D97"/>
<path d="M251.898 95.4631H168.776V104.623H251.898V95.4631Z" fill="#4A6D97"/>
<path d="M251.898 114.454H168.776V123.614H251.898V114.454Z" fill="#4A6D97"/>
<path d="M251.898 133.445H168.776V142.605H251.898V133.445Z" fill="#4A6D97"/>
<path d="M251.898 152.436H168.776V161.596H251.898V152.436Z" fill="#4A6D97"/>
</g>
<g opacity="0.5">
<path d="M251.898 171.228H30.5879V180.388H251.898V171.228Z" fill="#4A6D97"/>
<path d="M251.898 190.237H30.5879V199.397H251.898V190.237Z" fill="#4A6D97"/>
<path d="M251.898 209.228H30.5879V218.388H251.898V209.228Z" fill="#4A6D97"/>
<path d="M251.898 228.219H30.5879V237.379H251.898V228.219Z" fill="#4A6D97"/>
<path d="M251.898 247.21H30.5879V256.37H251.898V247.21Z" fill="#4A6D97"/>
<path d="M251.898 266.219H30.5879V275.379H251.898V266.219Z" fill="#4A6D97"/>
<path d="M251.898 285.211H30.5879V294.371H251.898V285.211Z" fill="#4A6D97"/>
<path d="M251.898 304.202H30.5879V313.362H251.898V304.202Z" fill="#4A6D97"/>
</g>
<path opacity="0.1" d="M155.253 93.2684C155.253 112.441 146.377 129.509 132.511 140.592C122.207 148.827 109.173 153.742 94.9814 153.742C80.7902 153.742 67.756 148.827 57.4515 140.592C43.5857 129.509 34.7095 112.423 34.7095 93.2684C34.7095 59.8753 61.6999 32.7945 94.9814 32.7945C128.263 32.7945 155.253 59.8753 155.253 93.2684Z" fill="#377AFD"/>
<path opacity="0.8" d="M94.9635 105.185C108.961 105.185 120.309 93.7999 120.309 79.7552C120.309 65.7105 108.961 54.325 94.9635 54.325C80.9656 54.325 69.6182 65.7105 69.6182 79.7552C69.6182 93.7999 80.9656 105.185 94.9635 105.185Z" fill="#377AFD"/>
<path opacity="0.8" d="M132.493 140.592C122.189 148.827 109.155 153.742 94.9634 153.742C80.7722 153.742 67.738 148.827 57.4336 140.592C62.3146 124.43 77.2651 112.659 94.9634 112.659C112.662 112.659 127.612 124.43 132.493 140.592Z" fill="#377AFD"/>
</g>
<defs>
<clipPath id="clip0_2009_3178">
<rect width="269" height="343" fill="white"/>
</clipPath>
</defs>
</svg>
