<svg width="250" height="115" viewBox="0 0 250 115" fill="none" xmlns="http://www.w3.org/2000/svg">
<rect opacity="0.25" x="76" y="57.0776" width="84" height="57.9224" rx="6" fill="#377AFD"/>
<path opacity="0.25" d="M154.626 49.131C152.63 49.1606 151.009 47.6218 151.009 45.6948V36.6226C151.009 27.5218 143.299 20.1396 133.753 20.1672L112.278 20.2295C102.487 20.2581 94.4635 27.858 94.4635 37.1713V46.455C94.4635 48.428 92.7637 50.0516 90.6637 50.0832C88.5596 50.1149 86.8516 48.5363 86.8516 46.5572V37.2449C86.8516 23.9518 98.3227 13.1365 112.278 13.1365H133.753C147.313 13.1365 158.234 23.6412 158.234 36.5521V45.5967C158.234 47.5186 156.62 49.1003 154.626 49.1299V49.131Z" fill="#377AFD"/>
<path d="M128.993 79.5998C128.993 74.9937 124.965 71.3767 120.069 71.7087C115.739 72.003 112.158 75.4647 111.925 79.5977C111.744 82.805 113.509 85.5781 116.192 86.9799C117.334 87.5766 117.901 88.8334 117.679 90.0769L115.797 100.622C115.558 101.965 116.639 103.145 118.061 103.094L122.899 102.921C124.314 102.87 125.388 101.619 125.15 100.298L123.269 89.849C123.045 88.6025 123.694 87.3651 124.838 86.6816C127.327 85.1959 128.993 82.5608 128.993 79.5977V79.5998Z" fill="#377AFD"/>
<g opacity="0.3">
<path d="M212.38 42.9938C211.824 42.9713 211.391 42.5023 211.415 41.9475C211.459 40.8685 211.457 39.7722 211.409 38.6881C211.384 38.1394 211.805 37.6745 212.351 37.6397C212.357 37.6397 212.365 37.6397 212.371 37.6387C212.927 37.6142 213.397 38.0444 213.422 38.5992C213.473 39.7405 213.475 40.894 213.428 42.0302C213.406 42.5493 212.994 42.96 212.486 42.9927C212.452 42.9948 212.416 42.9958 212.38 42.9938ZM210.811 33.4281C210.616 32.3613 210.372 31.2926 210.088 30.2514C209.941 29.716 210.258 29.1622 210.795 29.0161C211.334 28.871 211.886 29.1867 212.032 29.7221C212.331 30.8175 212.588 31.9424 212.793 33.0653C212.894 33.612 212.531 34.1361 211.984 34.2363C211.944 34.2434 211.904 34.2485 211.865 34.2506C211.363 34.2822 210.904 33.9349 210.811 33.4281ZM208.342 25.255C207.914 24.2608 207.438 23.2738 206.926 22.3195C206.663 21.8301 206.849 21.2201 207.339 20.9575C207.829 20.6959 208.44 20.8798 208.703 21.3693C209.241 22.3737 209.743 23.4138 210.193 24.4601C210.413 24.971 210.176 25.5615 209.665 25.7812C209.555 25.8282 209.443 25.8538 209.331 25.8609C208.918 25.8875 208.515 25.6555 208.342 25.254V25.255ZM204.104 17.8391C203.464 16.9645 202.779 16.1082 202.067 15.2919C201.702 14.8729 201.746 14.2374 202.166 13.8726C202.585 13.5079 203.222 13.5518 203.587 13.9707C204.336 14.83 205.058 15.7312 205.731 16.6518C206.06 17.1004 205.961 17.7298 205.512 18.0578C205.351 18.1753 205.167 18.2376 204.982 18.2498C204.649 18.2713 204.315 18.1272 204.104 17.8401V17.8391ZM198.317 11.5502C197.5 10.8411 196.641 10.1565 195.765 9.51688C195.316 9.18889 195.219 8.55949 195.546 8.11094C195.875 7.66239 196.505 7.5643 196.954 7.8933C197.877 8.56664 198.78 9.28596 199.639 10.0329C200.058 10.3976 200.103 11.0332 199.738 11.4521C199.554 11.6636 199.301 11.779 199.042 11.7954C198.787 11.8117 198.525 11.731 198.318 11.5502H198.317ZM191.28 6.69683C190.325 6.18493 189.336 5.70776 188.342 5.27863C187.831 5.05793 187.596 4.46633 187.817 3.95647C188.038 3.44661 188.63 3.21161 189.141 3.43231C190.188 3.88393 191.229 4.38663 192.234 4.9251C192.724 5.18769 192.908 5.79768 192.644 6.2871C192.473 6.60487 192.155 6.79389 191.819 6.81535C191.638 6.82659 191.452 6.7898 191.28 6.69785V6.69683ZM153.867 6.22886C153.605 5.73842 153.791 5.12945 154.281 4.86788C155.287 4.33248 156.33 3.83386 157.381 3.38531C157.893 3.16665 158.485 3.40472 158.703 3.9156C158.922 4.42648 158.684 5.01706 158.172 5.23571C157.174 5.66076 156.184 6.13486 155.229 6.64369C155.098 6.71317 154.959 6.75098 154.82 6.76017C154.438 6.7847 154.058 6.58852 153.866 6.22886H153.867ZM183.345 3.52325C182.302 3.23613 181.232 2.99091 180.167 2.79473C179.619 2.69358 179.258 2.16839 179.359 1.62278C179.461 1.07613 179.986 0.71852 180.533 0.816608C181.655 1.02403 182.781 1.28151 183.881 1.58395C184.417 1.73108 184.732 2.28487 184.585 2.8213C184.468 3.24635 184.095 3.53244 183.677 3.55799C183.569 3.56514 183.457 3.5539 183.345 3.52325ZM161.946 2.79269C161.801 2.25627 162.119 1.70452 162.657 1.55943C163.757 1.26209 164.885 1.0087 166.008 0.805369C166.556 0.704215 167.08 1.06898 167.179 1.61562C167.278 2.16226 166.915 2.6854 166.367 2.78451C165.3 2.97763 164.228 3.21876 163.183 3.50077C163.116 3.51916 163.049 3.52938 162.983 3.53346C162.514 3.56309 162.074 3.26168 161.947 2.79167L161.946 2.79269ZM174.901 2.20007C173.82 2.15409 172.723 2.15307 171.638 2.19905C171.082 2.22255 170.612 1.79239 170.589 1.23655C170.565 0.688889 170.986 0.225011 171.531 0.190271C171.539 0.190271 171.546 0.190271 171.553 0.190271C172.694 0.141226 173.849 0.142248 174.988 0.190271C175.544 0.214793 175.976 0.68378 175.951 1.23859C175.929 1.75663 175.518 2.16737 175.01 2.19905C174.974 2.20109 174.938 2.20211 174.901 2.20007Z" fill="#91B3FA"/>
<path d="M148.906 10.6336C149.103 10.6214 149.3 10.5508 149.468 10.418C149.874 10.0951 150.295 9.77636 150.717 9.46779C151.167 9.14082 151.266 8.51142 150.937 8.06185C150.61 7.6133 149.978 7.51418 149.529 7.84217C149.085 8.16607 148.643 8.5012 148.215 8.84043C147.779 9.18578 147.707 9.81927 148.052 10.2535C148.265 10.5222 148.589 10.652 148.907 10.6326L148.906 10.6336Z" fill="#91B3FA"/>
</g>
<g opacity="0.3">
<path d="M134.218 37.5692C134.703 37.5386 135.108 37.1605 135.156 36.6609C135.205 36.1449 135.267 35.6207 135.338 35.1037C135.414 34.553 135.028 34.0452 134.478 33.9696C133.924 33.8939 133.417 34.2792 133.342 34.8289C133.267 35.3735 133.202 35.9252 133.15 36.4688C133.097 37.0215 133.503 37.513 134.057 37.5661C134.111 37.5713 134.165 37.5723 134.218 37.5682V37.5692Z" fill="#91B3FA"/>
<path d="M173.742 80.5147C173.185 80.5229 172.728 80.0784 172.72 79.5226C172.711 78.9668 173.156 78.5111 173.712 78.5029C174.772 78.4876 175.847 78.4273 176.92 78.3231C177.47 78.2679 177.967 78.6745 178.02 79.2273C178.074 79.7801 177.669 80.2726 177.114 80.3257C176.649 80.3707 176.185 80.4085 175.722 80.4371C175.062 80.479 174.395 80.5045 173.74 80.5147H173.742ZM181.32 78.6786C181.192 78.1381 181.527 77.5966 182.068 77.4679C183.108 77.2216 184.148 76.9294 185.16 76.5983C185.688 76.4236 186.258 76.7128 186.431 77.241C186.604 77.7682 186.316 78.3374 185.787 78.51C184.722 78.8585 183.627 79.167 182.533 79.4255C182.477 79.4388 182.419 79.447 182.363 79.4511C181.882 79.4817 181.435 79.1629 181.32 78.6786ZM168.26 80.2174C167.147 80.0805 166.025 79.8945 164.924 79.6626C164.38 79.5482 164.031 79.0148 164.146 78.4712C164.26 77.9276 164.795 77.5802 165.339 77.6937C166.384 77.9133 167.449 78.0901 168.505 78.2199C169.058 78.2883 169.45 78.79 169.382 79.3418C169.322 79.8291 168.922 80.1919 168.447 80.2225C168.386 80.2266 168.322 80.2246 168.259 80.2174H168.26ZM189.53 75.9863C189.285 75.4867 189.493 74.8849 189.993 74.6407C190.952 74.1737 191.902 73.6598 192.817 73.1141C193.295 72.8291 193.913 72.9844 194.199 73.4615C194.484 73.9387 194.328 74.5558 193.851 74.8409C192.887 75.4162 191.887 75.9567 190.878 76.4492C190.756 76.5084 190.628 76.5411 190.5 76.5493C190.105 76.5748 189.715 76.3633 189.53 75.9863ZM159.646 78.1698C158.592 77.7918 157.539 77.3636 156.516 76.8967C156.011 76.6658 155.788 76.0691 156.019 75.5643C156.25 75.0586 156.848 74.8368 157.354 75.0677C158.326 75.5112 159.326 75.9179 160.327 76.2765C160.851 76.4645 161.124 77.0408 160.935 77.5629C160.795 77.9522 160.439 78.2025 160.05 78.227C159.917 78.2352 159.78 78.2178 159.646 78.1698ZM151.691 74.2861C150.742 73.6863 149.808 73.0385 148.915 72.3632C148.471 72.027 148.383 71.3966 148.72 70.9541C149.057 70.5107 149.688 70.4239 150.131 70.76C150.981 71.4027 151.869 72.0178 152.77 72.5879C153.239 72.8853 153.38 73.5065 153.082 73.9765C152.902 74.2595 152.605 74.422 152.294 74.4414C152.089 74.4547 151.878 74.4056 151.691 74.2871V74.2861ZM144.773 68.7635C143.978 67.9706 143.206 67.1358 142.482 66.2817C142.121 65.8576 142.175 65.2231 142.599 64.8635C143.024 64.5038 143.66 64.5569 144.02 64.981C144.708 65.7922 145.441 66.5851 146.196 67.3392C146.59 67.7315 146.592 68.3691 146.198 68.7615C146.017 68.9423 145.785 69.0404 145.549 69.0547C145.27 69.0721 144.986 68.975 144.773 68.7625V68.7635ZM139.226 61.8656C138.623 60.9184 138.054 59.9345 137.535 58.9413C137.277 58.4489 137.468 57.8409 137.961 57.5834C138.454 57.327 139.063 57.517 139.32 58.0095C139.814 58.9526 140.354 59.8865 140.927 60.7856C141.226 61.2546 141.087 61.8758 140.617 62.1742C140.469 62.2682 140.305 62.3193 140.141 62.3295C139.786 62.352 139.43 62.1854 139.226 61.8646V61.8656ZM135.331 53.9153C134.954 52.8619 134.616 51.7778 134.327 50.6937C134.184 50.1563 134.504 49.6055 135.043 49.4635C135.579 49.3215 136.132 49.6403 136.275 50.1777C136.548 51.2077 136.869 52.2376 137.229 53.2379C137.416 53.761 137.144 54.3363 136.62 54.5243C136.529 54.557 136.435 54.5754 136.343 54.5815C135.906 54.6091 135.486 54.3475 135.331 53.9163V53.9153ZM133.281 45.3142C133.179 44.4957 133.1 43.664 133.048 42.8425C133.03 42.5452 133.013 42.2479 133.001 41.9516C132.977 41.3967 133.402 40.9175 133.966 40.9053C134.522 40.8818 134.991 41.313 135.015 41.8688C135.027 42.1508 135.042 42.4328 135.059 42.7158C135.109 43.4975 135.183 44.2873 135.28 45.0659C135.35 45.6166 134.958 46.1203 134.405 46.1888C134.385 46.1908 134.363 46.1939 134.343 46.1949C133.816 46.2286 133.347 45.8465 133.28 45.3152L133.281 45.3142Z" fill="#91B3FA"/>
<path d="M197.815 71.9156C198.015 71.9033 198.213 71.8308 198.381 71.697C198.807 71.3557 199.232 71.0001 199.648 70.6384C200.068 70.2736 200.111 69.6381 199.745 69.2192C199.379 68.8003 198.743 68.7563 198.324 69.1221C197.929 69.4654 197.524 69.8036 197.12 70.1275C196.686 70.4749 196.617 71.1084 196.965 71.5416C197.179 71.8073 197.499 71.936 197.815 71.9166V71.9156Z" fill="#91B3FA"/>
</g>
<path d="M199.72 54.7746C199.836 54.6111 199.837 54.3924 199.72 54.229L196.4 49.5636C197.42 47.093 198.053 44.4415 198.234 41.6981L203.27 38.9741C203.447 38.8781 203.543 38.6819 203.51 38.4837L202.386 31.7125C202.353 31.5143 202.197 31.359 202 31.3263L196.353 30.3719C195.295 27.8329 193.838 25.5278 192.074 23.518L193.707 18.0332C193.765 17.8411 193.693 17.6337 193.53 17.5172L187.939 13.5232C187.776 13.4067 187.557 13.4057 187.393 13.5232L182.72 16.8377C180.246 15.819 177.59 15.1876 174.842 15.0068L172.114 9.97868C172.018 9.80192 171.821 9.70587 171.623 9.73857L164.841 10.8615C164.642 10.8942 164.486 11.0495 164.454 11.2467L163.498 16.8858C160.955 17.9423 158.646 19.3962 156.633 21.1577L151.139 19.527C150.947 19.4698 150.739 19.5413 150.623 19.7038L146.622 25.2856C146.506 25.4491 146.504 25.6678 146.622 25.8313L149.942 30.4966C148.922 32.9672 148.289 35.6176 148.108 38.3621L143.072 41.0861C142.895 41.1811 142.799 41.3783 142.832 41.5765L143.956 48.3477C143.989 48.546 144.145 48.7013 144.342 48.734L149.989 49.6883C151.047 52.2273 152.504 54.5324 154.268 56.5422L152.635 62.027C152.577 62.2191 152.649 62.4265 152.812 62.543L158.402 66.5371C158.566 66.6535 158.785 66.6546 158.949 66.5371L163.622 63.2225C166.096 64.2412 168.751 64.8726 171.5 65.0535L174.228 70.0815C174.323 70.2573 174.521 70.3544 174.719 70.3217L181.501 69.1987C181.7 69.166 181.855 69.0107 181.888 68.8135L182.844 63.1755C185.387 62.119 187.696 60.665 189.709 58.9035L195.202 60.5342C195.395 60.5915 195.603 60.5199 195.719 60.3575L199.72 54.7756V54.7746Z" fill="white"/>
<path d="M199.72 54.7746C199.836 54.6111 199.837 54.3924 199.72 54.229L196.4 49.5636C197.42 47.093 198.053 44.4415 198.234 41.6981L203.27 38.9741C203.447 38.8781 203.543 38.6819 203.51 38.4837L202.386 31.7125C202.353 31.5143 202.197 31.359 202 31.3263L196.353 30.3719C195.295 27.8329 193.838 25.5278 192.074 23.518L193.707 18.0332C193.765 17.8411 193.693 17.6337 193.53 17.5172L187.939 13.5232C187.776 13.4067 187.557 13.4057 187.393 13.5232L182.72 16.8377C180.246 15.819 177.59 15.1876 174.842 15.0068L172.114 9.97868C172.018 9.80192 171.821 9.70587 171.623 9.73857L164.841 10.8615C164.642 10.8942 164.486 11.0495 164.454 11.2467L163.498 16.8858C160.955 17.9423 158.646 19.3962 156.633 21.1577L151.139 19.527C150.947 19.4698 150.739 19.5413 150.623 19.7038L146.622 25.2856C146.506 25.4491 146.504 25.6678 146.622 25.8313L149.942 30.4966C148.922 32.9672 148.289 35.6176 148.108 38.3621L143.072 41.0861C142.895 41.1811 142.799 41.3783 142.832 41.5765L143.956 48.3477C143.989 48.546 144.145 48.7013 144.342 48.734L149.989 49.6883C151.047 52.2273 152.504 54.5324 154.268 56.5422L152.635 62.027C152.577 62.2191 152.649 62.4265 152.812 62.543L158.402 66.5371C158.566 66.6535 158.785 66.6546 158.949 66.5371L163.622 63.2225C166.096 64.2412 168.751 64.8726 171.5 65.0535L174.228 70.0815C174.323 70.2573 174.521 70.3544 174.719 70.3217L181.501 69.1987C181.7 69.166 181.855 69.0107 181.888 68.8135L182.844 63.1755C185.387 62.119 187.696 60.665 189.709 58.9035L195.202 60.5342C195.395 60.5915 195.603 60.5199 195.719 60.3575L199.72 54.7756V54.7746Z" fill="#4A6D97"/>
<path d="M172.598 46.9039C168.8 46.5882 165.969 43.2481 166.284 39.4563C166.436 37.6192 167.297 35.9527 168.706 34.7614C170.114 33.571 171.903 32.9988 173.743 33.1521C177.541 33.4678 180.373 36.8079 180.058 40.5997C179.77 44.0491 176.975 46.7006 173.613 46.9142C173.28 46.9356 172.941 46.9325 172.598 46.9039ZM169.747 35.9905C168.666 36.904 168.007 38.1812 167.889 39.5902C167.648 42.4971 169.82 45.0586 172.731 45.2998C175.644 45.543 178.208 43.3727 178.451 40.4658C178.692 37.5589 176.521 34.9974 173.609 34.7563C173.345 34.7348 173.083 34.7317 172.823 34.7481C171.695 34.8196 170.625 35.2477 169.747 35.9895V35.9905Z" fill="#BDD0FB"/>
<path d="M174.103 56.8681C174.68 56.8313 175.26 56.7659 175.838 56.6699C176.02 56.6402 176.201 56.6065 176.382 56.5708C177.275 56.393 178.153 56.1447 179 55.83C179.011 55.8259 179.024 55.8218 179.035 55.8167C179.068 55.8044 179.101 55.7922 179.133 55.7789C179.197 55.7544 179.26 55.7299 179.324 55.7053C179.49 55.6399 179.589 55.4754 179.577 55.3058C179.574 55.265 179.566 55.2231 179.55 55.1832C179.468 54.9768 179.234 54.8757 179.027 54.9574C177.961 55.3784 176.844 55.6869 175.705 55.8749C170.047 56.8129 164.577 54.6836 161.002 50.71C159.013 48.4999 157.611 45.7187 157.089 42.5768C156.997 42.026 156.935 41.4743 156.9 40.9246C156.666 37.2238 157.703 33.5863 159.894 30.5302C162.409 27.0195 166.143 24.697 170.409 23.991C179.217 22.5329 187.565 28.499 189.025 37.2892C189.115 37.8307 189.178 38.3753 189.212 38.9209C189.361 41.2812 188.992 43.6486 188.122 45.8505C188.099 45.9077 188.091 45.9659 188.094 46.0232C188.103 46.1734 188.198 46.3133 188.349 46.3716C188.557 46.4523 188.79 46.3522 188.872 46.1448C189.786 43.8325 190.174 41.3476 190.016 38.8698C189.98 38.2976 189.915 37.7265 189.82 37.1574C188.287 27.9278 179.518 21.6665 170.278 23.1961C165.801 23.9379 161.88 26.3758 159.239 30.0613C156.939 33.2696 155.849 37.0889 156.096 40.9736C156.133 41.5509 156.199 42.1303 156.294 42.7086C157.037 47.1798 159.479 51.0931 163.169 53.7303C166.384 56.0262 170.21 57.1143 174.102 56.8681H174.103Z" fill="#BDD0FB"/>
<g opacity="0.3">
<path d="M248.483 67.2747C248.753 67.2573 248.988 67.0673 249.05 66.7914C249.167 66.2765 249.269 65.7523 249.354 65.2312C249.41 64.893 249.18 64.5732 248.841 64.518C248.501 64.4608 248.182 64.6927 248.126 65.0309C248.044 65.5275 247.947 66.0282 247.837 66.5186C247.761 66.8527 247.972 67.1858 248.306 67.2614C248.366 67.2747 248.425 67.2788 248.483 67.2747Z" fill="#91B3FA"/>
<path d="M249.041 62.5359C248.697 62.5226 248.43 62.2344 248.444 61.8911C248.476 61.0257 248.465 60.149 248.411 59.2846C248.399 59.1028 248.385 58.9199 248.37 58.7359C248.341 58.3947 248.595 58.0933 248.938 58.0646C249.262 58.0503 249.581 58.2894 249.61 58.6317C249.627 58.8238 249.641 59.0149 249.653 59.2049C249.71 60.1112 249.723 61.0308 249.687 61.9381C249.675 62.259 249.42 62.5144 249.106 62.5338C249.085 62.5348 249.064 62.5348 249.042 62.5338L249.041 62.5359ZM247.911 55.6134C247.695 54.5856 247.415 53.5618 247.076 52.5717C246.965 52.2468 247.139 51.8943 247.464 51.7829C247.788 51.6725 248.143 51.8452 248.254 52.1701C248.609 53.2082 248.904 54.2821 249.13 55.359C249.201 55.6952 248.985 56.0242 248.648 56.0947C248.618 56.1008 248.589 56.1049 248.559 56.1059C248.255 56.1253 247.976 55.919 247.911 55.6134ZM245.869 49.6546C245.408 48.7125 244.884 47.7888 244.309 46.9101C244.122 46.623 244.203 46.2378 244.49 46.0508C244.779 45.8628 245.164 45.9435 245.352 46.2317C245.955 47.1533 246.504 48.1219 246.987 49.11C247.138 49.4185 247.01 49.7905 246.701 49.9406C246.625 49.9774 246.546 49.9968 246.467 50.002C246.223 50.0173 245.982 49.8875 245.869 49.6546ZM242.423 44.3782C241.744 43.5761 241.009 42.8088 240.239 42.0987C239.986 41.8657 239.971 41.4723 240.204 41.221C240.437 40.9696 240.83 40.9533 241.083 41.1862C241.891 41.9311 242.661 42.7352 243.374 43.5771C243.596 43.8387 243.562 44.2311 243.3 44.4528C243.194 44.5417 243.067 44.5897 242.939 44.5979C242.748 44.6101 242.556 44.5356 242.423 44.3792V44.3782ZM237.791 40.1021C236.938 39.4891 236.039 38.9241 235.118 38.4203C234.817 38.2558 234.707 37.8778 234.871 37.5774C235.036 37.276 235.415 37.1656 235.716 37.3311C236.681 37.8584 237.623 38.452 238.518 39.0937C238.796 39.2939 238.86 39.6822 238.66 39.9611C238.546 40.1185 238.373 40.2074 238.193 40.2186C238.055 40.2278 237.912 40.19 237.791 40.1032V40.1021ZM232.26 37.0788C231.283 36.6915 230.274 36.3625 229.259 36.0999C228.926 36.0141 228.727 35.6749 228.813 35.3428C228.899 35.0107 229.238 34.8115 229.571 34.8973C230.636 35.1732 231.695 35.5185 232.718 35.9242C233.037 36.0509 233.194 36.4116 233.067 36.7303C232.975 36.9613 232.76 37.1063 232.528 37.1217C232.439 37.1278 232.348 37.1145 232.259 37.0788H232.26ZM226.158 35.4981C225.12 35.3622 224.059 35.2907 223.006 35.2846C222.662 35.2825 222.386 35.0025 222.388 34.6592C222.39 34.3159 222.669 34.0452 223.014 34.0411C224.119 34.0482 225.231 34.1238 226.32 34.2659C226.661 34.3108 226.901 34.6225 226.856 34.9627C226.817 35.2621 226.571 35.4838 226.279 35.5022C226.239 35.5042 226.199 35.5032 226.158 35.4981ZM215.988 35.5614C215.906 35.2284 216.111 34.8922 216.445 34.8105C217.369 34.5857 218.322 34.4069 219.274 34.2802C219.418 34.2597 219.562 34.2424 219.707 34.225C220.045 34.1759 220.358 34.4293 220.397 34.7706C220.436 35.1119 220.192 35.4194 219.85 35.4593C219.715 35.4746 219.579 35.492 219.441 35.5104C218.53 35.6309 217.621 35.8016 216.74 36.0161C216.704 36.0253 216.667 36.0304 216.631 36.0325C216.336 36.0509 216.06 35.8567 215.988 35.5594V35.5614Z" fill="#91B3FA"/>
</g>
<g opacity="0.3">
<path d="M224.156 87.6833C223.073 87.7375 221.977 87.7262 220.898 87.6506C220.555 87.6261 220.298 87.3298 220.321 86.9865C220.346 86.6442 220.646 86.3898 220.986 86.4102C222.015 86.4828 223.06 86.493 224.093 86.4409C224.436 86.4235 224.729 86.6871 224.746 87.0304C224.764 87.3707 224.504 87.6609 224.164 87.6823C224.161 87.6823 224.158 87.6823 224.156 87.6823V87.6833ZM226.676 86.8169C226.618 86.4787 226.845 86.1579 227.184 86.0996C228.203 85.9249 229.221 85.6858 230.211 85.3905C230.539 85.2934 230.888 85.4794 230.986 85.8084C231.084 86.1374 230.897 86.4828 230.568 86.5819C229.531 86.8915 228.463 87.1418 227.396 87.3247C227.373 87.3288 227.351 87.3308 227.328 87.3329C227.015 87.3523 226.731 87.1347 226.676 86.8179V86.8169ZM217.666 87.2225C216.601 87.0141 215.54 86.7392 214.512 86.4051C214.186 86.2989 214.007 85.9474 214.113 85.6214C214.22 85.2945 214.57 85.1177 214.897 85.2229C215.878 85.5417 216.89 85.8043 217.906 86.0036C218.244 86.07 218.463 86.3959 218.397 86.7321C218.342 87.0151 218.101 87.2154 217.826 87.2327C217.774 87.2358 217.721 87.2327 217.666 87.2225ZM232.809 85.1392C232.671 84.8255 232.815 84.4587 233.13 84.3207C234.076 83.9059 235.007 83.4298 235.895 82.9036C236.191 82.7288 236.572 82.8269 236.747 83.1202C236.922 83.4155 236.825 83.7966 236.529 83.9713C235.598 84.523 234.622 85.0237 233.629 85.458C233.561 85.4876 233.489 85.505 233.418 85.509C233.165 85.5254 232.917 85.3844 232.809 85.1381V85.1392ZM211.483 85.2107C210.502 84.754 209.539 84.2318 208.62 83.6597C208.328 83.4778 208.239 83.0946 208.421 82.8034C208.603 82.5122 208.987 82.4223 209.279 82.6052C210.156 83.1518 211.074 83.6494 212.01 84.0847C212.321 84.2298 212.456 84.5997 212.311 84.9103C212.212 85.1238 212.006 85.2536 211.786 85.2679C211.686 85.274 211.582 85.2567 211.484 85.2107H211.483ZM205.963 81.7755C205.119 81.0961 204.307 80.3584 203.553 79.5849C203.313 79.3397 203.319 78.9463 203.564 78.7072C203.81 78.4681 204.204 78.4732 204.444 78.7184C205.164 79.4561 205.937 80.1591 206.744 80.8079C207.011 81.0235 207.053 81.4149 206.838 81.6815C206.724 81.8225 206.561 81.9012 206.393 81.9114C206.243 81.9206 206.089 81.8767 205.963 81.7755ZM201.425 77.1194C200.767 76.257 200.157 75.3466 199.612 74.4148C199.438 74.1185 199.538 73.7384 199.835 73.5647C200.132 73.391 200.512 73.4921 200.686 73.7874C201.206 74.6764 201.789 75.5449 202.416 76.3663C202.624 76.6392 202.571 77.0295 202.297 77.2369C202.196 77.3145 202.078 77.3554 201.96 77.3626C201.76 77.3748 201.556 77.291 201.425 77.1194Z" fill="#91B3FA"/>
<path d="M238.91 82.2558C239.03 82.2486 239.149 82.2057 239.251 82.1271C239.673 81.8021 240.086 81.4629 240.481 81.1186C240.74 80.8928 240.767 80.5004 240.541 80.2419C240.315 79.9844 239.922 79.9568 239.663 80.1816C239.287 80.5096 238.893 80.8335 238.491 81.1431C238.218 81.3526 238.169 81.7439 238.379 82.0147C238.51 82.1843 238.712 82.267 238.911 82.2548L238.91 82.2558Z" fill="#91B3FA"/>
</g>
<path d="M240.563 70.5423C240.64 70.433 240.642 70.2869 240.563 70.1765L238.342 67.055C239.025 65.4018 239.448 63.6281 239.569 61.792L242.939 59.9691C243.058 59.9048 243.122 59.773 243.1 59.6412L242.347 55.1097C242.326 54.9768 242.222 54.8736 242.09 54.8512L238.31 54.2126C237.602 52.5134 236.628 50.9715 235.447 49.6259L236.54 45.9557C236.578 45.827 236.531 45.688 236.421 45.6104L232.68 42.9375C232.57 42.8598 232.424 42.8588 232.313 42.9375L229.187 45.1547C227.531 44.4732 225.754 44.0502 223.915 43.9296L222.09 40.5649C222.025 40.4464 221.893 40.382 221.761 40.4045L217.222 41.1555C217.089 41.178 216.986 41.2812 216.963 41.413L216.324 45.1863C214.622 45.8934 213.078 46.8661 211.73 48.0452L208.054 46.954C207.925 46.9162 207.786 46.9632 207.708 47.0725L205.031 50.8081C204.953 50.9174 204.952 51.0635 205.031 51.1728L207.251 54.2943C206.569 55.9475 206.145 57.7213 206.024 59.5574L202.654 61.3802C202.536 61.4435 202.471 61.5753 202.494 61.7082L203.246 66.2397C203.268 66.3725 203.372 66.4757 203.504 66.4982L207.283 67.1368C207.991 68.836 208.966 70.3778 210.147 71.7234L209.054 75.3936C209.016 75.5223 209.063 75.6613 209.172 75.739L212.914 78.4119C213.023 78.4895 213.17 78.4905 213.28 78.4119L216.407 76.1947C218.063 76.8762 219.839 77.2992 221.678 77.4197L223.504 80.7844C223.568 80.9019 223.7 80.9673 223.832 80.9448L228.371 80.1938C228.504 80.1713 228.607 80.0681 228.63 79.9363L229.27 76.163C230.972 75.4559 232.516 74.4832 233.864 73.3041L237.54 74.3953C237.669 74.4331 237.808 74.3861 237.886 74.2768L240.563 70.5413V70.5423Z" fill="white"/>
<path d="M240.563 70.5423C240.64 70.433 240.642 70.2869 240.563 70.1765L238.342 67.055C239.025 65.4018 239.448 63.6281 239.569 61.792L242.939 59.9691C243.058 59.9048 243.122 59.773 243.1 59.6412L242.347 55.1097C242.326 54.9768 242.222 54.8736 242.09 54.8512L238.31 54.2126C237.602 52.5134 236.628 50.9715 235.447 49.6259L236.54 45.9557C236.578 45.827 236.531 45.688 236.421 45.6104L232.68 42.9375C232.57 42.8598 232.424 42.8588 232.313 42.9375L229.187 45.1547C227.531 44.4732 225.754 44.0502 223.915 43.9296L222.09 40.5649C222.025 40.4464 221.893 40.382 221.761 40.4045L217.222 41.1555C217.089 41.178 216.986 41.2812 216.963 41.413L216.324 45.1863C214.622 45.8934 213.078 46.8661 211.73 48.0452L208.054 46.954C207.925 46.9162 207.786 46.9632 207.708 47.0725L205.031 50.8081C204.953 50.9174 204.952 51.0635 205.031 51.1728L207.251 54.2943C206.569 55.9475 206.145 57.7213 206.024 59.5574L202.654 61.3802C202.536 61.4435 202.471 61.5753 202.494 61.7082L203.246 66.2397C203.268 66.3725 203.372 66.4757 203.504 66.4982L207.283 67.1368C207.991 68.836 208.966 70.3778 210.147 71.7234L209.054 75.3936C209.016 75.5223 209.063 75.6613 209.172 75.739L212.914 78.4119C213.023 78.4895 213.17 78.4905 213.28 78.4119L216.407 76.1947C218.063 76.8762 219.839 77.2992 221.678 77.4197L223.504 80.7844C223.568 80.9019 223.7 80.9673 223.832 80.9448L228.371 80.1938C228.504 80.1713 228.607 80.0681 228.63 79.9363L229.27 76.163C230.972 75.4559 232.516 74.4832 233.864 73.3041L237.54 74.3953C237.669 74.4331 237.808 74.3861 237.886 74.2768L240.563 70.5413V70.5423Z" fill="#4A6D97"/>
<path d="M222.406 65.3589C221.152 65.2557 220.015 64.6703 219.203 63.7119C218.39 62.7545 218 61.5376 218.105 60.2859C218.319 57.7039 220.595 55.781 223.186 55.9915C225.773 56.2071 227.702 58.4825 227.486 61.0645C227.382 62.3151 226.796 63.4513 225.836 64.2626C225.056 64.9216 224.105 65.3027 223.103 65.3661C222.872 65.3804 222.639 65.3784 222.405 65.3589H222.406ZM219.345 60.3891C219.268 61.3097 219.555 62.2048 220.152 62.9098C220.75 63.6138 221.587 64.045 222.508 64.1216C223.43 64.1972 224.326 63.9111 225.033 63.3144C225.739 62.7187 226.17 61.8819 226.247 60.9623C226.405 59.0629 224.986 57.3892 223.083 57.2309C222.911 57.2166 222.741 57.2155 222.575 57.2257C220.89 57.332 219.489 58.6613 219.345 60.3891Z" fill="#BDD0FB"/>
<path d="M223.455 72.2936C223.848 72.2691 224.243 72.2231 224.639 72.1587C225.426 72.029 226.202 71.8185 226.944 71.5334C226.977 71.5201 227.01 71.5068 227.044 71.4946C227.301 71.3934 227.453 71.14 227.437 70.8785C227.433 70.8151 227.418 70.7507 227.394 70.6884C227.268 70.3696 226.906 70.2143 226.586 70.34C225.896 70.6128 225.172 70.8131 224.436 70.9336C224.396 70.9408 224.355 70.9469 224.315 70.953C222.572 71.2248 220.826 71.0522 219.207 70.4738C218.328 70.1602 217.486 69.7259 216.702 69.1762C216.696 69.1721 216.69 69.167 216.683 69.1629C216.664 69.1486 216.644 69.1353 216.625 69.1221C214.349 67.4954 212.842 65.082 212.385 62.3253C212.325 61.9687 212.285 61.6121 212.262 61.2555C212.11 58.8595 212.782 56.5044 214.2 54.5262C215.83 52.2538 218.247 50.7508 221.008 50.2941C223.767 49.8384 226.543 50.4811 228.819 52.1067C231.095 53.7334 232.602 56.1467 233.059 58.9035C233.118 59.2539 233.158 59.6064 233.18 59.9589C233.277 61.4875 233.038 63.0191 232.475 64.4444C232.44 64.5323 232.427 64.6233 232.433 64.7111C232.447 64.9441 232.594 65.1587 232.826 65.2496C233.146 65.3742 233.506 65.2189 233.633 64.8991C234.264 63.3042 234.531 61.5897 234.423 59.8803C234.398 59.4859 234.354 59.0915 234.288 58.6991C233.776 55.6144 232.091 52.9139 229.544 51.0952C226.998 49.2764 223.895 48.5541 220.805 49.068C217.716 49.5789 215.012 51.2607 213.189 53.8039C211.603 56.017 210.851 58.6521 211.021 61.3322C211.046 61.7296 211.091 62.1291 211.158 62.5286C212.15 68.4998 217.531 72.6716 223.457 72.2956L223.455 72.2936Z" fill="#BDD0FB"/>
<path d="M37.9338 35.9872L58.5193 46.3785L57.368 48.6519L61.0338 50.5023L62.1851 48.2289L64.018 49.1546L62.8666 51.428L64.982 52.4958L66.1333 50.2224L69.094 51.7172L68.5485 52.7931L72.3555 54.715L72.901 53.6391L74.5926 54.4933L73.5334 56.5838L78.0742 58.8767L79.1334 56.7861L82.6293 58.5507L81.478 60.8241L85.2144 62.7103L86.3657 60.4369L90.7151 62.6326C91.2288 62.8922 91.629 63.3295 91.8429 63.8628L95.2937 72.4998C95.7235 73.5757 95.306 74.8048 94.3092 75.3985L90.0622 77.9243C89.3673 78.3371 88.5097 78.3667 87.7892 78.0029L35.3672 51.5404L37.9318 35.9872H37.9338Z" fill="#84D7AD"/>
<path d="M44.3644 56.0811L87.7898 78.0019C88.5113 78.3657 89.3689 78.336 90.0628 77.9232L94.3098 75.3975C94.9505 75.0163 95.3476 74.3726 95.4386 73.6758C91.4812 69.3946 53.8594 52.9923 52.4522 49.6165C51.9518 48.4159 51.8658 46.5972 53.3661 43.7771L51.1597 42.6634C52.9578 32.0157 47.7467 20.994 37.5886 15.8658C25.0899 9.5564 9.83529 14.5579 3.51586 27.0366C-2.80356 39.5154 2.20593 54.7457 14.7046 61.055C24.8627 66.1833 36.8425 63.8383 44.3654 56.0811H44.3644ZM18.311 28.7603C20.8418 30.0375 21.856 33.1222 20.5768 35.649C19.2975 38.1758 16.2079 39.1884 13.6771 37.9112C11.1463 36.634 10.1321 33.5493 11.4113 31.0225C12.6905 28.4957 15.7801 27.4831 18.311 28.7603Z" fill="#4CA883"/>
<path d="M16.9494 56.6217C26.995 61.6927 39.2562 57.6731 44.3353 47.6435C49.4144 37.6139 45.3884 25.3722 35.3428 20.3012C25.2972 15.2303 13.036 19.2499 7.9569 29.2794C2.87783 39.309 6.90384 51.5507 16.9494 56.6217ZM13.6766 37.9123C11.1458 36.6351 10.1316 33.5504 11.4108 31.0236C12.6901 28.4968 15.7797 27.4842 18.3105 28.7614C20.8414 30.0386 21.8555 33.1233 20.5763 35.6501C19.2971 38.1769 16.2075 39.1895 13.6766 37.9123Z" fill="#84D7AD"/>
</svg>
