<svg width="254" height="80" viewBox="0 0 254 80" fill="none" xmlns="http://www.w3.org/2000/svg">
<g clip-path="url(#clip0_2003_721)">
<path d="M206.555 3.72281H231.233V31.1199L206.555 3.72281ZM180.438 19.8011H180.198C180.198 14.3084 181.691 10.2555 184.678 7.6424C187.664 5.02934 192.264 3.72281 198.476 3.72281L231.233 43.4786C231.233 48.758 229.806 52.5309 226.953 54.7974C224.18 57.0105 219.647 58.117 213.355 58.117L180.438 19.8011ZM180.318 30.5999L204.076 58.157H180.318V30.5999Z" fill="#1E2E40"/>
<path d="M146.162 3.72281H149.521C160.827 3.72281 167.546 8.69562 169.679 18.6412C170.346 21.6542 170.679 25.1739 170.679 29.2001C170.679 33.2263 170.253 37.0659 169.399 40.7189C168.573 44.3718 167.293 47.4915 165.56 50.0779C161.96 55.464 156.614 58.157 149.521 58.157H146.162V3.72281ZM118.005 3.72281H139.523V58.077H118.005V3.72281Z" fill="#1E2E40"/>
<path d="M84.4884 3.64282H106.606V40.6789C106.606 46.5716 105.26 50.9044 102.567 53.6775C99.6068 56.6638 94.7673 58.157 88.0481 58.157H84.4884V3.64282ZM25.1348 3.64282H47.2524V58.157H43.6928C33.8538 58.157 27.9878 54.824 26.0947 48.1581C25.4547 45.9983 25.1348 43.5052 25.1348 40.6789V3.64282ZM54.7716 3.68282H77.0092V58.197H54.7716V3.68282Z" fill="#1E2E40"/>
<path d="M231.145 79.1785C231.145 79.4684 231.048 79.7101 230.855 79.9034C230.662 80.0967 230.42 80.1933 230.13 80.1933C229.84 80.1933 229.598 80.0967 229.405 79.9034C229.212 79.7101 229.115 79.4684 229.115 79.1785C229.115 78.9207 229.212 78.6898 229.405 78.4858C229.598 78.2817 229.84 78.1797 230.13 78.1797C230.42 78.1797 230.662 78.2817 230.855 78.4858C231.048 78.6898 231.145 78.9207 231.145 79.1785Z" fill="#1E2E40"/>
<path d="M216.682 68.7236H218.261V80H216.65L216.682 68.7236ZM220.548 68.7236C221.182 68.7236 221.746 68.8525 222.24 69.1102C222.734 69.3572 223.126 69.7331 223.416 70.2378C223.706 70.7426 223.85 71.3709 223.85 72.1226C223.85 72.8744 223.7 73.5026 223.399 74.0074C223.099 74.5122 222.701 74.8988 222.207 75.1673C221.724 75.425 221.198 75.5539 220.629 75.5539H217.31V68.7236H220.548ZM218.164 74.1685H220.403C220.747 74.1685 221.053 74.0933 221.321 73.943C221.601 73.7819 221.815 73.5563 221.966 73.2664C222.127 72.9657 222.207 72.6059 222.207 72.1871C222.207 71.7467 222.127 71.3762 221.966 71.0755C221.815 70.7748 221.601 70.5493 221.321 70.3989C221.053 70.2486 220.747 70.1734 220.403 70.1734H218.164V74.1685ZM219.888 74.6679L221.386 74.5229L223.834 79.7101V80H222.207L219.888 74.6679Z" fill="#1E2E40"/>
<path d="M215.21 68.7236V70.1734H211.118V73.7819C211.462 73.6423 211.848 73.5349 212.278 73.4597C212.707 73.3738 213.142 73.3201 213.583 73.2986C214.034 73.2771 214.442 73.2932 214.807 73.3469V74.7323L214.678 74.829C214.399 74.7431 214.05 74.7001 213.631 74.7001C213.223 74.7001 212.793 74.7377 212.342 74.8129C211.891 74.8773 211.483 74.9901 211.118 75.1512V78.5502H215.21V80H209.523V68.7236H215.21Z" fill="#1E2E40"/>
<path d="M208.384 68.7236V70.1734H205.967V80H204.389V70.1734H201.94V68.7236H208.384Z" fill="#1E2E40"/>
<path d="M201.631 77.2615C201.631 77.8736 201.491 78.3998 201.212 78.8402C200.944 79.2697 200.562 79.6027 200.068 79.8389C199.585 80.0752 199.021 80.1933 198.377 80.1933C197.851 80.1933 197.367 80.1289 196.927 80C196.497 79.8819 196.127 79.7369 195.815 79.5651C195.515 79.3933 195.289 79.2483 195.139 79.1301V77.5675H195.364C195.697 77.8682 196.127 78.1421 196.653 78.3891C197.179 78.6254 197.7 78.7435 198.216 78.7435C198.549 78.7435 198.849 78.6952 199.118 78.5985C199.386 78.4911 199.606 78.3354 199.778 78.1314C199.95 77.9166 200.036 77.6535 200.036 77.342C200.036 76.9447 199.929 76.6171 199.714 76.3594C199.499 76.1016 199.177 75.8385 198.747 75.57L196.927 74.4424C196.616 74.249 196.304 74.0289 195.993 73.7819C195.681 73.5241 195.418 73.2073 195.203 72.8314C194.999 72.4448 194.897 71.983 194.897 71.446C194.897 70.8124 195.037 70.2808 195.316 69.8512C195.595 69.4216 195.971 69.0995 196.444 68.8847C196.927 68.6591 197.464 68.5464 198.055 68.5464C198.57 68.5464 199.027 68.6001 199.424 68.7075C199.821 68.8149 200.16 68.9491 200.439 69.1102C200.729 69.2606 200.954 69.4216 201.115 69.5935V71.14H200.89C200.611 70.8178 200.224 70.5493 199.73 70.3345C199.247 70.109 198.715 69.9962 198.135 69.9962C197.663 69.9962 197.271 70.109 196.959 70.3345C196.648 70.56 196.492 70.8876 196.492 71.3172C196.492 71.7145 196.637 72.0582 196.927 72.3482C197.217 72.6381 197.561 72.9066 197.958 73.1536L199.666 74.2329C200.031 74.4585 200.358 74.7108 200.648 74.9901C200.949 75.2693 201.185 75.5915 201.357 75.9566C201.54 76.3218 201.631 76.7567 201.631 77.2615Z" fill="#1E2E40"/>
<path d="M185.909 80V79.694L188.567 68.7236L191.917 68.7397L194.576 79.694V80H192.932L192.143 76.5366H188.325L187.536 80H185.909ZM188.599 75.1351H191.869L190.758 70.2056H189.711L188.599 75.1351Z" fill="#1E2E40"/>
<path d="M185.932 68.7236V70.1734H181.904V74.2007C182.248 74.0611 182.635 73.9483 183.064 73.8624C183.494 73.7765 183.929 73.7282 184.369 73.7174C184.82 73.696 185.228 73.7121 185.593 73.7658V75.1351L185.465 75.2317C185.185 75.1565 184.836 75.1189 184.417 75.1189C184.009 75.1082 183.58 75.1404 183.129 75.2156C182.678 75.2908 182.27 75.4089 181.904 75.57V80H180.31V68.7236H185.932Z" fill="#1E2E40"/>
<path d="M163.713 68.7236H165.307L166.709 78.0347H166.95L168.304 68.7236H170.269L171.622 78.0347H171.896L173.265 68.7236H174.86V69.0297L173.088 80H170.607L169.399 71.2527H169.19L167.965 80H165.501L163.713 69.0297V68.7236Z" fill="#1E2E40"/>
<path d="M153.728 74.3618C153.728 72.9872 153.948 71.8756 154.389 71.0272C154.829 70.168 155.404 69.5398 156.112 69.1424C156.832 68.7343 157.611 68.5303 158.448 68.5303C159.286 68.5303 160.059 68.7343 160.768 69.1424C161.487 69.5398 162.067 70.168 162.508 71.0272C162.948 71.8756 163.168 72.9872 163.168 74.3618C163.168 75.7257 162.948 76.8373 162.508 77.6964C162.067 78.5556 161.487 79.1892 160.768 79.5973C160.059 79.9947 159.286 80.1933 158.448 80.1933C157.611 80.1933 156.832 79.9947 156.112 79.5973C155.404 79.1892 154.829 78.5556 154.389 77.6964C153.948 76.8373 153.728 75.7257 153.728 74.3618ZM155.371 74.3618C155.371 75.3284 155.506 76.1338 155.774 76.7782C156.043 77.4118 156.408 77.8897 156.87 78.2119C157.342 78.5234 157.868 78.6791 158.448 78.6791C159.017 78.6791 159.538 78.5234 160.011 78.2119C160.483 77.8897 160.859 77.4118 161.138 76.7782C161.418 76.1338 161.557 75.3284 161.557 74.3618C161.557 73.3845 161.412 72.5791 161.122 71.9454C160.843 71.3118 160.467 70.8393 159.995 70.5278C159.522 70.2056 159.007 70.0445 158.448 70.0445C157.868 70.0445 157.342 70.2056 156.87 70.5278C156.408 70.85 156.043 71.3333 155.774 71.9776C155.506 72.6113 155.371 73.406 155.371 74.3618Z" fill="#1E2E40"/>
<path d="M145.591 68.7236H147.169V80H145.558L145.591 68.7236ZM149.457 68.7236C150.09 68.7236 150.654 68.8525 151.148 69.1102C151.642 69.3572 152.034 69.7331 152.324 70.2378C152.614 70.7426 152.759 71.3709 152.759 72.1226C152.759 72.8744 152.609 73.5026 152.308 74.0074C152.007 74.5122 151.61 74.8988 151.116 75.1673C150.633 75.425 150.106 75.5539 149.537 75.5539H146.219V68.7236H149.457ZM147.073 74.1685H149.312C149.655 74.1685 149.962 74.0933 150.23 73.943C150.509 73.7819 150.724 73.5563 150.874 73.2664C151.035 72.9657 151.116 72.6059 151.116 72.1871C151.116 71.7467 151.035 71.3762 150.874 71.0755C150.724 70.7748 150.509 70.5493 150.23 70.3989C149.962 70.2486 149.655 70.1734 149.312 70.1734H147.073V74.1685ZM148.796 74.6679L150.294 74.5229L152.743 79.7101V80H151.116L148.796 74.6679Z" fill="#1E2E40"/>
<path d="M135.432 74.3618C135.432 73.0194 135.669 71.9239 136.141 71.0755C136.624 70.2164 137.263 69.5827 138.058 69.1746C138.864 68.7558 139.75 68.5464 140.716 68.5464C141.242 68.5464 141.715 68.6054 142.134 68.7236C142.553 68.831 142.907 68.9652 143.197 69.1263C143.498 69.2874 143.712 69.4378 143.841 69.5774V71.1883H143.584C143.422 70.9842 143.208 70.7963 142.939 70.6245C142.671 70.4419 142.354 70.2969 141.989 70.1895C141.624 70.0821 141.21 70.0284 140.748 70.0284C139.997 70.0284 139.341 70.1949 138.783 70.5278C138.235 70.8607 137.811 71.3494 137.51 71.9938C137.22 72.6381 137.075 73.4221 137.075 74.3457C137.075 75.2586 137.215 76.0425 137.494 76.6976C137.784 77.342 138.187 77.8414 138.702 78.1958C139.229 78.5395 139.835 78.7113 140.523 78.7113C140.974 78.7113 141.36 78.6469 141.683 78.518C142.005 78.3891 142.23 78.2495 142.359 78.0991V74.9095H138.67V73.508H143.841V78.8563C143.38 79.3181 142.848 79.6564 142.247 79.8712C141.656 80.0752 141.011 80.1772 140.313 80.1772C139.658 80.1772 139.035 80.0645 138.445 79.8389C137.865 79.6027 137.349 79.2483 136.898 78.7757C136.447 78.3032 136.087 77.7018 135.819 76.9715C135.561 76.2305 135.432 75.3606 135.432 74.3618Z" fill="#1E2E40"/>
<path d="M129.02 81.0955H128.021L128.681 78.2602H130.26V78.4213L129.02 81.0955Z" fill="#1E2E40"/>
<path d="M119.932 68.7236H121.511V80H119.9L119.932 68.7236ZM123.798 68.7236C124.432 68.7236 124.996 68.8525 125.49 69.1102C125.984 69.3572 126.376 69.7331 126.666 70.2378C126.956 70.7426 127.101 71.3709 127.101 72.1226C127.101 72.8744 126.95 73.5026 126.65 74.0074C126.349 74.5122 125.952 74.8988 125.458 75.1673C124.974 75.425 124.448 75.5539 123.879 75.5539H120.56V68.7236H123.798ZM121.414 74.1685H123.653C123.997 74.1685 124.303 74.0933 124.572 73.943C124.851 73.7819 125.066 73.5563 125.216 73.2664C125.377 72.9657 125.458 72.6059 125.458 72.1871C125.458 71.7467 125.377 71.3762 125.216 71.0755C125.066 70.7748 124.851 70.5493 124.572 70.3989C124.303 70.2486 123.997 70.1734 123.653 70.1734H121.414V74.1685ZM123.138 74.6679L124.636 74.5229L127.085 79.7101V80H125.458L123.138 74.6679Z" fill="#1E2E40"/>
<path d="M118.46 68.7236V70.1734H114.368V73.7819C114.712 73.6423 115.099 73.5349 115.528 73.4597C115.958 73.3738 116.393 73.3201 116.833 73.2986C117.284 73.2771 117.692 73.2932 118.057 73.3469V74.7323L117.929 74.829C117.649 74.7431 117.3 74.7001 116.881 74.7001C116.473 74.7001 116.044 74.7377 115.593 74.8129C115.142 74.8773 114.734 74.9901 114.368 75.1512V78.5502H118.46V80H112.774V68.7236H118.46Z" fill="#1E2E40"/>
<path d="M111.634 68.7236V70.1734H109.218V80H107.639V70.1734H105.19V68.7236H111.634Z" fill="#1E2E40"/>
<path d="M97.4202 68.7236H98.9989V80H97.388L97.4202 68.7236ZM101.286 68.7236C101.92 68.7236 102.484 68.8525 102.978 69.1102C103.472 69.3572 103.864 69.7331 104.154 70.2378C104.444 70.7426 104.589 71.3709 104.589 72.1226C104.589 72.8744 104.438 73.5026 104.138 74.0074C103.837 74.5122 103.44 74.8988 102.946 75.1673C102.462 75.425 101.936 75.5539 101.367 75.5539H98.0485V68.7236H101.286ZM98.9023 74.1685H101.141C101.485 74.1685 101.791 74.0933 102.06 73.943C102.339 73.7819 102.554 73.5563 102.704 73.2664C102.865 72.9657 102.946 72.6059 102.946 72.1871C102.946 71.7467 102.865 71.3762 102.704 71.0755C102.554 70.7748 102.339 70.5493 102.06 70.3989C101.791 70.2486 101.485 70.1734 101.141 70.1734H98.9023V74.1685ZM100.626 74.6679L102.124 74.5229L104.573 79.7101V80H102.946L100.626 74.6679Z" fill="#1E2E40"/>
<path d="M87.5545 80V79.694L90.2125 68.7236L93.5632 68.7397L96.2212 79.694V80H94.5781L93.7887 76.5366H89.9708L89.1815 80H87.5545ZM90.2447 75.1351H93.5149L92.4033 70.2056H91.3562L90.2447 75.1351Z" fill="#1E2E40"/>
<path d="M76.3548 80V68.7236H78.9484L81.2842 77.5031H81.4453L83.765 68.7236H86.3586V80H84.796L84.8604 70.705H84.651L82.1702 80H80.5432L78.0624 70.705H77.8529L77.9174 80H76.3548Z" fill="#1E2E40"/>
<path d="M75.1169 77.2615C75.1169 77.8736 74.9773 78.3998 74.698 78.8402C74.4296 79.2697 74.0483 79.6027 73.5543 79.8389C73.071 80.0752 72.5072 80.1933 71.8628 80.1933C71.3366 80.1933 70.8533 80.1289 70.413 80C69.9834 79.8819 69.6129 79.7369 69.3015 79.5651C69.0008 79.3933 68.7752 79.2483 68.6249 79.1301V77.5675H68.8504C69.1833 77.8682 69.6129 78.1421 70.1391 78.3891C70.6654 78.6254 71.1862 78.7435 71.7017 78.7435C72.0347 78.7435 72.3354 78.6952 72.6039 78.5985C72.8723 78.4911 73.0925 78.3354 73.2643 78.1314C73.4362 77.9166 73.5221 77.6535 73.5221 77.342C73.5221 76.9447 73.4147 76.6171 73.1999 76.3594C72.9851 76.1016 72.6629 75.8385 72.2333 75.57L70.413 74.4424C70.1016 74.249 69.7901 74.0289 69.4787 73.7819C69.1672 73.5241 68.9041 73.2073 68.6893 72.8314C68.4853 72.4448 68.3832 71.983 68.3832 71.446C68.3832 70.8124 68.5229 70.2808 68.8021 69.8512C69.0813 69.4216 69.4572 69.0995 69.9297 68.8847C70.413 68.6591 70.95 68.5464 71.5406 68.5464C72.0561 68.5464 72.5126 68.6001 72.9099 68.7075C73.3073 68.8149 73.6456 68.9491 73.9248 69.1102C74.2148 69.2606 74.4403 69.4216 74.6014 69.5935V71.14H74.3759C74.0966 70.8178 73.71 70.5493 73.216 70.3345C72.7327 70.109 72.2011 69.9962 71.6212 69.9962C71.1487 69.9962 70.7567 70.109 70.4452 70.3345C70.1338 70.56 69.9781 70.8876 69.9781 71.3172C69.9781 71.7145 70.123 72.0582 70.413 72.3482C70.703 72.6381 71.0466 72.9066 71.444 73.1536L73.1516 74.2329C73.5167 74.4585 73.8443 74.7108 74.1342 74.9901C74.4349 75.2693 74.6712 75.5915 74.843 75.9566C75.0256 76.3218 75.1169 76.7567 75.1169 77.2615Z" fill="#1E2E40"/>
<path d="M56.5172 80V68.7236H58.1281V73.5402H58.6436L61.8332 68.7236H63.4925V69.0135L59.9162 74.2974L63.4925 79.7101V80H61.8332L58.6436 75.0545H58.1281V80H56.5172Z" fill="#1E2E40"/>
<path d="M47.897 68.7236H49.4757V80H47.8648L47.897 68.7236ZM51.7632 68.7236C52.3968 68.7236 52.9606 68.8525 53.4547 69.1102C53.9487 69.3572 54.3407 69.7331 54.6306 70.2378C54.9206 70.7426 55.0656 71.3709 55.0656 72.1226C55.0656 72.8744 54.9152 73.5026 54.6145 74.0074C54.3138 74.5122 53.9164 74.8988 53.4224 75.1673C52.9392 75.425 52.4129 75.5539 51.8437 75.5539H48.5252V68.7236H51.7632ZM49.379 74.1685H51.6182C51.9619 74.1685 52.2679 74.0933 52.5364 73.943C52.8157 73.7819 53.0304 73.5563 53.1808 73.2664C53.3419 72.9657 53.4224 72.6059 53.4224 72.1871C53.4224 71.7467 53.3419 71.3762 53.1808 71.0755C53.0304 70.7748 52.8157 70.5493 52.5364 70.3989C52.2679 70.2486 51.9619 70.1734 51.6182 70.1734H49.379V74.1685ZM51.1027 74.6679L52.6009 74.5229L55.0495 79.7101V80H53.4224L51.1027 74.6679Z" fill="#1E2E40"/>
<path d="M36.9521 74.3618C36.9521 72.9872 37.1723 71.8756 37.6126 71.0272C38.0529 70.168 38.6275 69.5398 39.3363 69.1424C40.0559 68.7343 40.8345 68.5303 41.6721 68.5303C42.5098 68.5303 43.2831 68.7343 43.9919 69.1424C44.7114 69.5398 45.2913 70.168 45.7317 71.0272C46.172 71.8756 46.3921 72.9872 46.3921 74.3618C46.3921 75.7257 46.172 76.8373 45.7317 77.6964C45.2913 78.5556 44.7114 79.1892 43.9919 79.5973C43.2831 79.9947 42.5098 80.1933 41.6721 80.1933C40.8345 80.1933 40.0559 79.9947 39.3363 79.5973C38.6275 79.1892 38.0529 78.5556 37.6126 77.6964C37.1723 76.8373 36.9521 75.7257 36.9521 74.3618ZM38.5953 74.3618C38.5953 75.3284 38.7295 76.1338 38.998 76.7782C39.2665 77.4118 39.6316 77.8897 40.0934 78.2119C40.566 78.5234 41.0922 78.6791 41.6721 78.6791C42.2413 78.6791 42.7622 78.5234 43.2347 78.2119C43.7073 77.8897 44.0832 77.4118 44.3624 76.7782C44.6416 76.1338 44.7812 75.3284 44.7812 74.3618C44.7812 73.3845 44.6362 72.5791 44.3463 71.9454C44.067 71.3118 43.6912 70.8393 43.2186 70.5278C42.7461 70.2056 42.2306 70.0445 41.6721 70.0445C41.0922 70.0445 40.566 70.2056 40.0934 70.5278C39.6316 70.85 39.2665 71.3333 38.998 71.9776C38.7295 72.6113 38.5953 73.406 38.5953 74.3618Z" fill="#1E2E40"/>
<path d="M25.1953 68.7236H26.7901L28.1916 78.0347H28.4333L29.7864 68.7236H31.7518L33.1049 78.0347H33.3788L34.7481 68.7236H36.3429V69.0297L34.5709 80H32.0901L30.8819 71.2527H30.6724L29.4481 80H26.9834L25.1953 69.0297V68.7236Z" fill="#1E2E40"/>
</g>
<defs>
<clipPath id="clip0_2003_721">
<rect width="253.106" height="80" fill="white" transform="translate(0.894043)"/>
</clipPath>
</defs>
</svg>
