<svg width="25" height="25" viewBox="0 0 25 25" fill="none" xmlns="http://www.w3.org/2000/svg">
<path d="M22.0638 15.3321C23.5186 15.3321 24.6979 14.1527 24.6979 12.6979C24.6979 11.2431 23.5186 10.0638 22.0638 10.0638C20.609 10.0638 19.4296 11.2431 19.4296 12.6979C19.4296 14.1527 20.609 15.3321 22.0638 15.3321Z" fill="#1C274C"/>
<path d="M22.0638 5.96621C23.5186 5.96621 24.6979 4.78686 24.6979 3.33206C24.6979 1.87727 23.5186 0.697918 22.0638 0.697918C20.609 0.697918 19.4296 1.87727 19.4296 3.33206C19.4296 4.78686 20.609 5.96621 22.0638 5.96621Z" fill="#1C274C"/>
<path d="M22.0638 24.6979C23.5186 24.6979 24.6979 23.5186 24.6979 22.0638C24.6979 20.609 23.5186 19.4296 22.0638 19.4296C20.609 19.4296 19.4296 20.609 19.4296 22.0638C19.4296 23.5186 20.609 24.6979 22.0638 24.6979Z" fill="#1C274C"/>
<path d="M3.33206 15.3321C4.78686 15.3321 5.96621 14.1527 5.96621 12.6979C5.96621 11.2431 4.78686 10.0638 3.33206 10.0638C1.87726 10.0638 0.697914 11.2431 0.697914 12.6979C0.697914 14.1527 1.87726 15.3321 3.33206 15.3321Z" fill="#1C274C"/>
<path opacity="0.4" d="M20.893 13.576C21.373 13.576 21.7711 13.1779 21.7711 12.6979C21.7711 12.2179 21.373 11.8199 20.893 11.8199H12.4052V6.84426C12.4052 4.9945 13.1896 4.21011 15.0394 4.21011H20.893C21.373 4.21011 21.7711 3.81206 21.7711 3.33206C21.7711 2.85206 21.373 2.45401 20.893 2.45401H15.0394C12.2062 2.45401 10.6491 4.01109 10.6491 6.84426V11.8199H4.5028C4.0228 11.8199 3.62475 12.2179 3.62475 12.6979C3.62475 13.1779 4.0228 13.576 4.5028 13.576H10.6491V18.5516C10.6491 21.3847 12.2062 22.9418 15.0394 22.9418H20.893C21.373 22.9418 21.7711 22.5438 21.7711 22.0638C21.7711 21.5838 21.373 21.1857 20.893 21.1857H15.0394C13.1896 21.1857 12.4052 20.4013 12.4052 18.5516V13.576H20.893Z" fill="#1C274C"/>
</svg>
