<svg width="24" height="26" viewBox="0 0 24 26" fill="none" xmlns="http://www.w3.org/2000/svg">
<path fill-rule="evenodd" clip-rule="evenodd" d="M3.69231 7.94762C3.69231 3.51422 7.45693 0 12 0C16.4406 0 20.1374 3.35741 20.302 7.64892L20.89 7.84515C21.46 8.03532 21.9596 8.202 22.3559 8.38659C22.7844 8.58614 23.1771 8.84317 23.4773 9.26013C23.7775 9.67709 23.8969 10.1313 23.9505 10.6013C24.0001 11.0361 24 11.5633 24 12.1648V19.2473C24 19.9982 24.0001 20.6388 23.9419 21.1527C23.8806 21.6933 23.7437 22.2245 23.3728 22.6777C23.1598 22.938 22.9013 23.1573 22.6098 23.3248C22.1023 23.6166 21.5563 23.6644 21.0136 23.636C20.4977 23.609 19.8665 23.5037 19.1267 23.3802L19.0755 23.3717C17.4843 23.1062 16.8432 23.0058 16.2183 23.0582C15.9897 23.0773 15.7626 23.1115 15.5385 23.1605C14.926 23.2944 14.337 23.5819 12.8813 24.3106C12.8307 24.3359 12.7806 24.361 12.7311 24.3858C11.0294 25.2379 9.98095 25.7629 8.84961 25.9269C8.50934 25.9762 8.16593 26.0006 7.8221 26C6.679 25.9978 5.57532 25.6293 3.78505 25.0316C3.73327 25.0143 3.68091 24.9968 3.62796 24.9792L3.15588 24.8216L3.10995 24.8063C2.53998 24.6161 2.0404 24.4495 1.64406 24.2649C1.21558 24.0653 0.82291 23.8083 0.522718 23.3913C0.222526 22.9744 0.103125 22.5202 0.049521 22.0501C-6.43042e-05 21.6153 -3.33454e-05 21.0881 1.86719e-06 20.4867L2.16063e-06 14.3016C-3.57663e-05 13.333 -6.77475e-05 12.5166 0.0828193 11.8771C0.169336 11.2096 0.364951 10.557 0.901691 10.0663C1.05947 9.92199 1.2334 9.79649 1.42 9.69227C2.05481 9.3377 2.73509 9.35829 3.39497 9.48719C3.52883 9.51334 3.66904 9.54554 3.81562 9.58294C3.73429 9.03361 3.69231 8.48597 3.69231 7.94762ZM4.30609 11.6551C3.77935 11.485 3.37507 11.3664 3.04139 11.3012C2.55506 11.2062 2.39564 11.2637 2.31949 11.3063C2.25729 11.341 2.19931 11.3828 2.14672 11.4309C2.08234 11.4898 1.97739 11.623 1.91362 12.1149C1.84801 12.6211 1.84616 13.3162 1.84616 14.3642V20.4382C1.84616 21.1024 1.84755 21.523 1.88376 21.8405C1.91727 22.1344 1.97211 22.2436 2.0204 22.3107C2.06868 22.3777 2.15487 22.4644 2.42276 22.5891C2.71218 22.7239 3.11026 22.8582 3.73968 23.0683L4.21176 23.2258C6.21 23.8926 7.01648 24.1503 7.8256 24.1518C8.07972 24.1523 8.33355 24.1342 8.58506 24.0978C9.38563 23.9817 10.155 23.6089 12.0556 22.6575C12.0941 22.6382 12.1322 22.6192 12.1698 22.6003C13.4753 21.9467 14.2794 21.544 15.1446 21.3549C15.4478 21.2886 15.7551 21.2423 16.0644 21.2164C16.9468 21.1425 17.8269 21.2895 19.2548 21.5279C19.2957 21.5347 19.3371 21.5416 19.379 21.5486C20.1842 21.683 20.7112 21.7695 21.1101 21.7904C21.4939 21.8105 21.6259 21.7592 21.6904 21.7221C21.7876 21.6662 21.8738 21.5932 21.9448 21.5064C21.992 21.4487 22.0642 21.3269 22.1075 20.9445C22.1525 20.5472 22.1538 20.0126 22.1538 19.1954V12.2132C22.1538 11.549 22.1525 11.1285 22.1162 10.811C22.0827 10.5171 22.0279 10.4079 21.9796 10.3408C21.9313 10.2737 21.8451 10.1871 21.5772 10.0623C21.2878 9.92755 20.8897 9.79323 20.2603 9.58319L20.1879 9.55903C19.9538 11.1625 19.3841 12.7813 18.5443 14.2261C17.4213 16.1582 15.7781 17.8411 13.7195 18.7402C12.6269 19.2173 11.3731 19.2173 10.2805 18.7402C8.22187 17.8411 6.5787 16.1582 5.45567 14.2261C4.98303 13.413 4.59594 12.5447 4.30609 11.6551ZM12 1.8482C8.38625 1.8482 5.53846 4.62305 5.53846 7.94762C5.53846 9.6941 6.07685 11.62 7.05134 13.2966C8.0261 14.9736 9.40003 16.3392 11.0187 17.0461C11.6406 17.3177 12.3594 17.3177 12.9813 17.0461C14.6 16.3392 15.9739 14.9736 16.9487 13.2966C17.9232 11.62 18.4615 9.6941 18.4615 7.94762C18.4615 4.62305 15.6137 1.8482 12 1.8482ZM12 6.77672C11.1503 6.77672 10.4615 7.46627 10.4615 8.31688C10.4615 9.16749 11.1503 9.85705 12 9.85705C12.8497 9.85705 13.5385 9.16749 13.5385 8.31688C13.5385 7.46627 12.8497 6.77672 12 6.77672ZM8.61539 8.31688C8.61539 6.44554 10.1307 4.92852 12 4.92852C13.8693 4.92852 15.3846 6.44554 15.3846 8.31688C15.3846 10.1882 13.8693 11.7052 12 11.7052C10.1307 11.7052 8.61539 10.1882 8.61539 8.31688Z" fill="#1C274C"/>
</svg>
