<svg width="18" height="18" viewBox="0 0 18 18" fill="none" xmlns="http://www.w3.org/2000/svg">
<path d="M5.25 5.4375C5.56066 5.4375 5.8125 5.68934 5.8125 6L5.8125 12C5.8125 12.3107 5.56066 12.5625 5.25 12.5625C4.93934 12.5625 4.6875 12.3107 4.6875 12L4.6875 6C4.6875 5.68934 4.93934 5.4375 5.25 5.4375Z" fill="#4A6D97"/>
<path d="M13.3125 9C13.3125 9.31066 13.0607 9.5625 12.75 9.5625H8.858L10.1477 10.8523C10.3674 11.0719 10.3674 11.4281 10.1477 11.6477C9.92808 11.8674 9.57192 11.8674 9.35225 11.6477L7.10225 9.39775C6.99676 9.29226 6.9375 9.14918 6.9375 9C6.9375 8.85082 6.99676 8.70774 7.10225 8.60225L9.35225 6.35225C9.57192 6.13258 9.92808 6.13258 10.1477 6.35225C10.3674 6.57192 10.3674 6.92808 10.1477 7.14775L8.858 8.4375H12.75C13.0607 8.4375 13.3125 8.68934 13.3125 9Z" fill="#4A6D97"/>
<path fill-rule="evenodd" clip-rule="evenodd" d="M8.95697 0.9375C7.22567 0.937491 5.86889 0.937483 4.81028 1.07981C3.72673 1.22549 2.87171 1.5295 2.2006 2.2006C1.5295 2.87171 1.22549 3.72673 1.07981 4.81028C0.937483 5.86889 0.937491 7.22567 0.9375 8.95697V9.04303C0.937491 10.7743 0.937483 12.1311 1.07981 13.1897C1.22549 14.2733 1.5295 15.1283 2.2006 15.7994C2.87171 16.4705 3.72673 16.7745 4.81028 16.9202C5.8689 17.0625 7.22567 17.0625 8.95697 17.0625H9.04303C10.7743 17.0625 12.1311 17.0625 13.1897 16.9202C14.2733 16.7745 15.1283 16.4705 15.7994 15.7994C16.4705 15.1283 16.7745 14.2733 16.9202 13.1897C17.0625 12.1311 17.0625 10.7743 17.0625 9.04303V8.95697C17.0625 7.22567 17.0625 5.8689 16.9202 4.81028C16.7745 3.72673 16.4705 2.87171 15.7994 2.2006C15.1283 1.5295 14.2733 1.22549 13.1897 1.07981C12.1311 0.937483 10.7743 0.937491 9.04303 0.9375H8.95697ZM2.9961 2.9961C3.42334 2.56886 4.00138 2.32369 4.96018 2.19478C5.93517 2.06369 7.21633 2.0625 9 2.0625C10.7837 2.0625 12.0648 2.06369 13.0398 2.19478C13.9986 2.32369 14.5767 2.56886 15.0039 2.9961C15.4311 3.42334 15.6763 4.00138 15.8052 4.96018C15.9363 5.93517 15.9375 7.21633 15.9375 9C15.9375 10.7837 15.9363 12.0648 15.8052 13.0398C15.6763 13.9986 15.4311 14.5767 15.0039 15.0039C14.5767 15.4311 13.9986 15.6763 13.0398 15.8052C12.0648 15.9363 10.7837 15.9375 9 15.9375C7.21633 15.9375 5.93517 15.9363 4.96018 15.8052C4.00138 15.6763 3.42334 15.4311 2.9961 15.0039C2.56886 14.5767 2.32369 13.9986 2.19478 13.0398C2.06369 12.0648 2.0625 10.7837 2.0625 9C2.0625 7.21633 2.06369 5.93517 2.19478 4.96018C2.32369 4.00138 2.56886 3.42334 2.9961 2.9961Z" fill="#4A6D97"/>
</svg>
